<svg xmlns="http://www.w3.org/2000/svg" width="78.344" height="9.746" viewBox="0 0 78.344 9.746">
  <path id="animejs" d="M1.185,9.468C.367,9.024.091,8.261.1,6.462A4.851,4.851,0,0,1,.41,4.274c.53-1.018.964-1.1,6.135-1.1h4.62V1.936h-11L.063,1.514A3.145,3.145,0,0,1,.015.582L.073.073,6.135.035c6.648-.042,7.3.031,7.943.9.349.467.375.756.425,4.656l.053,4.158L8.113,9.739c-5.353-.006-6.525-.052-6.929-.271Zm9.981-2.92V5.124l-3.86.048-3.86.048-.055.967a6.338,6.338,0,0,0,.048,1.376l.1.409h7.625Zm4.824-.84c.064-4.57.1-4.7,1.43-5.3.675-.3,1.223-.336,5.9-.336,7.445,0,7.193-.2,7.194,5.813v3.86H27.14V1.936H19.33V9.746h-3.4Zm15.982.8.048-3.239,1.642-.051L35.3,3.165v6.58h-3.38Zm4.752-.583c0-4.455.082-4.806,1.273-5.441l.768-.41H49.508C59.666.073,60.292.091,61,.409c1.332.6,1.366.729,1.43,5.3l.056,4.038h-3.4V1.936H40.1V9.746H36.724ZM64.981,9.479c-.993-.434-1.132-1.059-1.069-4.8C64-.212,63.735-.054,71.6.023c5.734.056,6.025.111,6.493,1.24a8.3,8.3,0,0,1-.11,4.363c-.565.956-.821,1-5.984,1.068l-4.748.061V7.966l5.546.047,5.546.047v1.6L71.954,9.7c-5.225.032-6.5-.008-6.973-.216Zm10-5.112a6.338,6.338,0,0,0,.048-1.376l-.055-.967-3.86-.048-3.86-.048V4.776h7.625ZM32.006,1.873a3.011,3.011,0,0,1-.041-.939L32.02.25h3.195V2.025l-1.556.051C32.437,2.117,32.082,2.073,32.006,1.873Z" transform="translate(0 0)" fill="rgba(0,0,0,0.25)"/>
</svg>
