<svg xmlns="http://www.w3.org/2000/svg" width="34.983" height="48.084" viewBox="0 0 34.983 48.084">
  <g id="firebase" transform="translate(0 -1.302)">
    <path id="Union_1" data-name="Union 1" d="M-1840.822-357.445l5.88-37.6a1.03,1.03,0,0,1,1.959-.356l6.046,11.429.092-.176,4.425,8.433-.225.612-17.74,17.673-.482.2-.133.133Z" transform="translate(1841 397.301)" fill="rgba(0,0,0,0.25)"/>
    <path id="Path_42" data-name="Path 42" d="M106.92,63.192l4.55-4.66-4.552-8.689a1.172,1.172,0,0,0-2.066,0l-2.432,4.638v.395Z" transform="translate(-88.279 -41.307)" fill="rgba(0,0,0,0.25)"/>
    <g id="Group_33" data-name="Group 33" transform="translate(14.186 8.094)">
      <path id="Path_43" data-name="Path 43" d="M107.113,64.1l4.424-4.531-4.424-8.424a1.019,1.019,0,0,0-1.856-.081l-2.445,4.71-.073.241Z" transform="translate(-102.739 -50.499)" fill="rgba(0,0,0,0.25)"/>
      <path id="Path_44" data-name="Path 44" d="M107.113,64.1l4.424-4.531-4.424-8.424a1.019,1.019,0,0,0-1.856-.081l-2.445,4.71-.073.241Z" transform="translate(-102.739 -50.499)" fill="rgba(0,0,0,0.25)"/>
    </g>
    <path id="Path_47" data-name="Path 47" d="M36.232,101.452l-4.55-28.021a.964.964,0,0,0-1.671-.611L1.289,101.513l15.787,8.824a3.306,3.306,0,0,0,3.222,0Z" transform="translate(-1.249 -61.371)" fill="rgba(0,0,0,0.25)"/>
  </g>
</svg>
