<svg xmlns="http://www.w3.org/2000/svg" width="255.662" height="226.503" viewBox="0 0 255.662 226.503">
  <g id="googlecloudconsole" transform="translate(-0.241 -0.044)" opacity="0.43" style="mix-blend-mode: luminosity;isolation: isolate">
    <path id="Path_54" data-name="Path 54" d="M81.558,190.482l-44.94-77.835,44.94-77.836h89.876l44.939,77.836-44.939,77.835H81.558" fill="#cac9c2"/>
    <path id="Path_55" data-name="Path 55" d="M128,148.176a35.028,35.028,0,1,1,35.027-35.029A35.068,35.068,0,0,1,128,148.176" fill="#fff"/>
    <g id="Group_66" data-name="Group 66" transform="translate(25.207)">
      <path id="Path_56" data-name="Path 56" d="M173.258,8.716C170.5,3.947,163.744.044,158.236.044H47.493c-5.508,0-12.268,3.9-15.021,8.672L.113,64.764A18.423,18.423,0,0,0,2.119,74.931l21.9,37.45,39.1-67.552h123.59a18.037,18.037,0,0,1,9.04,2.851l-22.5-38.964" fill="#5072aa"/>
      <path id="Path_57" data-name="Path 57" d="M1.52,62.311.1,64.764A18.42,18.42,0,0,0,2.11,74.931l21.9,37.45L35.667,92.249,1.52,62.311" fill="#4d6796"/>
      <path id="Path_58" data-name="Path 58" d="M50.347,28.837a6.758,6.758,0,1,1,6.758-6.758,6.766,6.766,0,0,1-6.758,6.758" fill="#fff"/>
      <path id="Path_59" data-name="Path 59" d="M161.089,22.079a6.258,6.258,0,1,1-6.258-6.258,6.258,6.258,0,0,1,6.258,6.258Z" fill="#fff"/>
    </g>
    <g id="Group_67" data-name="Group 67" transform="translate(138.476 44.522)">
      <path id="Path_60" data-name="Path 60" d="M115.361,60.1,82.486,3.159A18.035,18.035,0,0,0,73.447.307H28.879L67.415,68.232,6.4,176.026a17.618,17.618,0,0,1-6.275,6H44.967c5.508,0,12.268-3.9,15.022-8.671l55.372-95.907c2.755-4.77,2.755-12.575,0-17.345" fill="#cc4232"/>
      <path id="Path_61" data-name="Path 61" d="M83.97,5.713,82.5,3.159A18.025,18.025,0,0,0,73.458.307H28.89l11.6,20.448L83.97,5.713" fill="#b23f33"/>
      <path id="Path_62" data-name="Path 62" d="M41.563,165.46a6.759,6.759,0,1,1,6.758-6.759,6.766,6.766,0,0,1-6.758,6.759" fill="#fff"/>
      <path id="Path_63" data-name="Path 63" d="M94.158,75.384a6.758,6.758,0,1,1,6.758-6.758,6.766,6.766,0,0,1-6.758,6.758" fill="#fff"/>
    </g>
    <g id="Group_68" data-name="Group 68" transform="translate(0 64.491)">
      <path id="Path_64" data-name="Path 64" d="M89.184,116.2,27.326,10.44A18.423,18.423,0,0,1,25.32.273L2.307,40.133c-2.754,4.77-2.754,12.575,0,17.345l55.372,95.907c2.753,4.769,9.514,8.671,15.021,8.671h65.9a17.626,17.626,0,0,0,6.275-6L167.438,116.2H89.184" fill="#ecb02a"/>
      <path id="Path_65" data-name="Path 65" d="M134.857,162.056h3.833a17.607,17.607,0,0,0,6.274-6l22.56-39.859H143.5l-8.643,45.858" fill="#c79732"/>
      <path id="Path_66" data-name="Path 66" d="M75.554,145.49a6.758,6.758,0,1,1,6.758-6.758,6.766,6.766,0,0,1-6.758,6.758" fill="#fff"/>
      <path id="Path_67" data-name="Path 67" d="M22.865,55.415a6.758,6.758,0,1,1,6.758-6.758,6.766,6.766,0,0,1-6.758,6.758" fill="#fff"/>
    </g>
  </g>
</svg>
