<svg id="marko" xmlns="http://www.w3.org/2000/svg" width="60.559" height="33" viewBox="0 0 60.559 33">
  <path id="Path_15" data-name="Path 15" d="M95.5,0h8.54c-3.146,5.157-6.624,10.834-10.1,16.488H85.4C88.877,10.834,92.355,5.157,95.5,0Z" transform="translate(-65.198)" fill="rgba(0,0,0,0.25)"/>
  <path id="Path_16" data-name="Path 16" d="M10.1,0h8.54c-1.68,2.744-3.383,5.512-5.062,8.256L8.54,16.488c1.68,2.744,3.359,5.512,5.039,8.256s3.359,5.488,5.062,8.232H10.1c-1.68-2.744-3.383-5.488-5.062-8.232C3.359,22.024,1.68,19.256,0,16.512L5.039,8.28C6.718,5.512,8.422,2.768,10.1,0Z" fill="rgba(0,0,0,0.25)"/>
  <path id="Path_17" data-name="Path 17" d="M42.7,0h0c3.477,5.677,6.955,11.355,10.1,16.488h8.54C58.195,11.355,54.717,5.677,51.24,0H42.7Z" transform="translate(-32.599)" fill="rgba(0,0,0,0.25)"/>
  <path id="Path_18" data-name="Path 18" d="M136.64,0H128.1c1.68,2.744,3.359,5.512,5.062,8.256,1.68,2.744,3.359,5.488,5.062,8.232-1.68,2.744-3.383,5.512-5.062,8.256s-3.359,5.488-5.062,8.232h8.54c1.68-2.744,3.359-5.488,5.062-8.232,1.68-2.744,3.359-5.488,5.062-8.256-1.7-2.744-3.383-5.488-5.062-8.232S138.319,2.768,136.64,0Z" transform="translate(-97.797)" fill="rgba(0,0,0,0.25)"/>
  <path id="Path_19" data-name="Path 19" d="M100.592,24.6h-8.54c-1.088,1.774-2.176,3.572-3.265,5.346s-2.176,3.572-3.288,5.346h8.54c1.088-1.774,2.2-3.572,3.288-5.346C98.392,28.148,99.481,26.374,100.592,24.6Z" transform="translate(-65.274 -18.781)" fill="rgba(0,0,0,0.25)"/>
  <path id="Path_20" data-name="Path 20" d="M100.5,10.692h8.54c1.088-1.774,2.176-3.572,3.265-5.346S114.481,1.774,115.569,0h-8.54c-1.088,1.774-2.176,3.572-3.265,5.346C102.676,7.144,101.588,8.918,100.5,10.692Z" transform="translate(-76.726)" fill="rgba(0,0,0,0.25)"/>
  <path id="Path_21" data-name="Path 21" d="M143.192,10.692h-8.54c-1.088-1.774-2.2-3.572-3.288-5.346S129.188,1.774,128.1,0h8.54c1.088,1.774,2.176,3.572,3.265,5.346C141.016,7.144,142.1,8.918,143.192,10.692Z" transform="translate(-97.797)" fill="rgba(0,0,0,0.25)"/>
  <path id="Path_22" data-name="Path 22" d="M185.563,0h-8.54c1.68,2.768,3.359,5.512,5.039,8.256s3.383,5.488,5.062,8.232c-1.68,2.744-3.383,5.512-5.062,8.256S178.7,30.232,177,32.976h8.54c1.68-2.744,3.359-5.488,5.062-8.232,1.68-2.744,3.359-5.488,5.062-8.256-1.68-2.744-3.359-5.488-5.062-8.232C188.946,5.512,187.243,2.768,185.563,0Z" transform="translate(-135.129)" fill="rgba(0,0,0,0.25)"/>
  <path id="Path_23" data-name="Path 23" d="M192.192,10.692h-8.54c-1.112-1.774-2.2-3.572-3.288-5.346S178.188,1.774,177.1,0h8.54c1.088,1.774,2.176,3.572,3.265,5.346C189.992,7.144,191.1,8.918,192.192,10.692Z" transform="translate(-135.205)" fill="rgba(0,0,0,0.25)"/>
  <path id="Path_24" data-name="Path 24" d="M192.2,80.492h8.54c1.088-1.774,2.176-3.548,3.265-5.346,1.088-1.774,2.176-3.572,3.288-5.346h-8.563c-1.088,1.774-2.176,3.572-3.265,5.346S193.288,78.695,192.2,80.492Z" transform="translate(-146.733 -53.288)" fill="rgba(0,0,0,0.25)"/>
  <path id="Path_25" data-name="Path 25" d="M143.2,80.492h8.54c1.088-1.774,2.176-3.572,3.265-5.346s2.176-3.572,3.288-5.346h-8.54c-1.088,1.774-2.176,3.572-3.265,5.346C145.376,76.92,144.288,78.695,143.2,80.492Z" transform="translate(-109.325 -53.288)" fill="rgba(0,0,0,0.25)"/>
  <path id="Path_26" data-name="Path 26" d="M15.092,24.6H6.553c-1.088,1.774-2.176,3.572-3.265,5.346C2.176,31.72,1.088,33.518,0,35.292H8.54c1.088-1.774,2.176-3.548,3.265-5.346C12.892,28.172,13.981,26.374,15.092,24.6Z" transform="translate(0 -18.781)" fill="rgba(0,0,0,0.25)"/>
  <path id="Path_27" data-name="Path 27" d="M15,10.692h8.54C24.628,8.918,25.716,7.12,26.8,5.346,27.916,3.572,29,1.774,30.092,0h-8.54c-1.088,1.774-2.176,3.548-3.265,5.346C17.2,7.12,16.112,8.918,15,10.692Z" transform="translate(-11.452)" fill="rgba(0,0,0,0.25)"/>
  <path id="Path_28" data-name="Path 28" d="M15,94.3h8.54c1.088,1.774,2.176,3.572,3.265,5.346s2.176,3.572,3.265,5.346h-8.54c-1.088-1.774-2.2-3.548-3.288-5.346C17.176,97.872,16.088,96.1,15,94.3Z" transform="translate(-11.452 -71.992)" fill="rgba(0,0,0,0.25)"/>
  <path id="Path_29" data-name="Path 29" d="M57.792,10.692h-8.54c-1.088-1.774-2.176-3.572-3.265-5.346C44.876,3.572,43.788,1.774,42.7,0h8.54c1.088,1.774,2.176,3.548,3.265,5.346C55.616,7.12,56.7,8.918,57.792,10.692Z" transform="translate(-32.599)" fill="rgba(0,0,0,0.25)"/>
</svg>
