<svg xmlns="http://www.w3.org/2000/svg" width="32.044" height="69.381" viewBox="0 0 32.044 69.381">
  <g id="mongodb" transform="translate(0 -0.203)">
    <path id="Path_33" data-name="Path 33" d="M29,78.715l-1.847-.631S27.378,68.668,24,67.993c-2.252-2.613.361-110.83,8.47-.361,0,0-2.794,1.4-3.289,3.785a34.749,34.749,0,0,0-.181,7.3Z" transform="translate(-11.886 -9.131)" fill="#fff" fill-rule="evenodd"/>
    <path id="Path_34" data-name="Path 34" d="M29,78.715l-1.847-.631S27.378,68.668,24,67.993c-2.252-2.613.361-110.83,8.47-.361,0,0-2.794,1.4-3.289,3.785a34.749,34.749,0,0,0-.181,7.3Z" transform="translate(-11.886 -9.131)" fill="#a6a385" fill-rule="evenodd"/>
    <path id="Path_36" data-name="Path 36" d="M34.108,60.673S50.283,50.04,46.5,27.919C42.849,11.836,34.244,6.565,33.3,4.537A22.744,22.744,0,0,1,31.27.573l.676,44.737c0,.045-1.4,13.7,2.163,15.364" transform="translate(-15.027 -0.189)" fill="#499d4a" fill-rule="evenodd"/>
    <path id="Path_38" data-name="Path 38" d="M14.321,61.069S-.863,50.707.039,32.461C.894,14.215,11.617,5.249,13.689,3.627A4.2,4.2,0,0,0,15.176.2c.946,2.028.766,30.321.9,33.654C16.482,46.7,15.357,58.637,14.321,61.069Z" transform="translate(0)" fill="#58aa50" fill-rule="evenodd"/>
  </g>
</svg>
