<svg id="nodejs" xmlns="http://www.w3.org/2000/svg" width="40.143" height="45.233" viewBox="0 0 40.143 45.233">
  <path id="Path_30" data-name="Path 30" d="M20.071,45.233a3.644,3.644,0,0,1-1.745-.457L12.8,41.493c-.831-.457-.416-.623-.166-.706a10.063,10.063,0,0,0,2.493-1.122.382.382,0,0,1,.416.042l4.239,2.535a.528.528,0,0,0,.5,0l16.581-9.6a.477.477,0,0,0,.249-.457V13.028a.477.477,0,0,0-.249-.457L20.279,3.013a.528.528,0,0,0-.5,0L3.2,12.571a.521.521,0,0,0-.249.457V32.185a.521.521,0,0,0,.249.457l4.53,2.618c2.452,1.247,3.989-.208,3.989-1.662V14.69a.505.505,0,0,1,.5-.5h2.119a.505.505,0,0,1,.5.5V33.6c0,3.283-1.787,5.194-4.9,5.194a7.129,7.129,0,0,1-3.823-1.039L1.745,35.26A3.507,3.507,0,0,1,0,32.226V13.069a3.507,3.507,0,0,1,1.745-3.034L18.326.436a3.709,3.709,0,0,1,3.491,0l16.581,9.6a3.507,3.507,0,0,1,1.745,3.034V32.226A3.507,3.507,0,0,1,38.4,35.26l-16.581,9.6a4.253,4.253,0,0,1-1.745.374ZM25.183,32.06c-7.272,0-8.768-3.324-8.768-6.15a.505.505,0,0,1,.5-.5h2.161a.427.427,0,0,1,.457.416c.332,2.2,1.288,3.283,5.693,3.283,3.491,0,4.987-.79,4.987-2.66,0-1.08-.416-1.87-5.859-2.41C19.822,23.583,17,22.585,17,18.97c0-3.366,2.826-5.361,7.563-5.361,5.319,0,7.937,1.828,8.27,5.818a.67.67,0,0,1-.125.374.513.513,0,0,1-.332.166H30.211a.487.487,0,0,1-.457-.374c-.5-2.285-1.787-3.033-5.194-3.033-3.823,0-4.28,1.33-4.28,2.327,0,1.205.54,1.579,5.693,2.244,5.111.665,7.522,1.621,7.522,5.194-.042,3.657-3.033,5.735-8.311,5.735Z" transform="translate(0)" fill="rgba(0,0,0,0.25)"/>
</svg>
