<svg id="php" xmlns="http://www.w3.org/2000/svg" width="95.776" height="48.124" viewBox="0 0 95.776 48.124">
  <path id="Path_50" data-name="Path 50" d="M7.579,10.123h14.2q6.254.052,9.063,3.6t1.855,9.7a18.6,18.6,0,0,1-1.643,5.512,16.385,16.385,0,0,1-3.392,4.876A11.839,11.839,0,0,1,22,37.312a26.11,26.11,0,0,1-6.254.742H9.381L7.367,48.124H0l7.579-38h0m6.2,6.042-3.18,15.9a3.9,3.9,0,0,0,.636.053h.742a27.869,27.869,0,0,0,8.48-1.007Q23.849,30,25.016,23.373q.954-5.565-1.908-6.413a23.782,23.782,0,0,0-7.049-.8q-.636.052-1.219.053H13.727l.053-.053" fill="#bfbfbf"/>
  <path id="Path_51" data-name="Path 51" d="M41.093,0h7.314L46.34,10.123h6.572q5.406.107,8.056,2.226,2.7,2.12,1.59,8.056L59.007,38.054h-7.42L54.979,21.2q.53-2.651-.318-3.763T51,16.324l-5.883-.053L40.775,38.054H33.461L41.093,0h0" fill="#bfbfbf"/>
  <path id="Path_52" data-name="Path 52" d="M70.412,10.123h14.2q6.253.052,9.063,3.6t1.855,9.7a18.6,18.6,0,0,1-1.643,5.512A16.385,16.385,0,0,1,90.5,33.814a11.839,11.839,0,0,1-5.671,3.5,26.11,26.11,0,0,1-6.254.742h-6.36L70.2,48.124H62.833l7.579-38h0m6.2,6.042-3.18,15.9a3.9,3.9,0,0,0,.636.053h.742a27.869,27.869,0,0,0,8.48-1.007Q86.683,30,87.849,23.373q.954-5.565-1.908-6.413a23.783,23.783,0,0,0-7.049-.8q-.636.052-1.219.053H76.56l.053-.053" fill="#bfbfbf"/>
</svg>
