<svg xmlns="http://www.w3.org/2000/svg" width="256" height="243.034" viewBox="0 0 256 243.034">
  <path id="redux" d="M177.381,169.733a18.3,18.3,0,0,0-1.955-36.488h-.651a18.226,18.226,0,0,0-17.592,18.9,18.709,18.709,0,0,0,5.212,12.054c-11.076,21.828-28.016,37.791-53.426,51.148-17.266,9.122-35.183,12.38-53.1,10.1-14.66-1.955-26.062-8.47-33.23-19.222-10.424-15.963-11.4-33.23-2.6-50.5a76.685,76.685,0,0,1,22.152-26.063c-1.3-4.235-3.258-11.4-4.235-16.614C-9.286,147.254-4.4,193.515,9.935,215.342c10.75,16.29,32.577,26.389,56.684,26.389a80.13,80.13,0,0,0,19.546-2.28c41.7-8.145,73.3-32.9,91.216-69.718Zm57.336-40.4c-24.759-29-61.245-44.958-102.944-44.958h-5.212A17.9,17.9,0,0,0,110.6,74.6h-.652a18.25,18.25,0,0,0,.652,36.488h.651a18.351,18.351,0,0,0,15.963-11.077h5.864a124.163,124.163,0,0,1,69.39,21.176c16.288,10.751,28.016,24.76,34.531,41.7,5.538,13.683,5.212,27.04-.652,38.443-9.121,17.266-24.432,26.714-44.63,26.714a83.321,83.321,0,0,1-31.926-6.842c-3.583,3.258-10.1,8.47-14.66,11.729,14.009,6.515,28.343,10.1,42.025,10.1,31.274,0,54.4-17.267,63.2-34.533,9.447-18.9,8.795-51.474-15.637-79.165ZM69.225,175.27a18.3,18.3,0,0,0,18.243,17.592h.652a18.249,18.249,0,0,0-.652-36.487h-.651a5.55,5.55,0,0,0-2.28.325c-13.357-22.153-18.9-46.26-16.94-72.323,1.3-19.547,7.818-36.488,19.22-50.5,9.447-12.054,27.69-17.918,40.07-18.243,34.531-.652,49.19,42.351,50.168,59.618,4.235.977,11.4,3.258,16.289,4.887C189.434,27.366,156.857,0,125.584,0c-29.32,0-56.359,21.176-67.11,52.451-14.985,41.7-5.212,81.771,13.031,113.372a14.639,14.639,0,0,0-2.28,9.448Z" fill="#bfbfbf"/>
</svg>
