<svg id="sequelize" xmlns="http://www.w3.org/2000/svg" width="256" height="295.9" viewBox="0 0 256 295.9">
  <path id="Path_68" data-name="Path 68" d="M219.013,94.362V200.956l-90.576,53.588-.819.745v39.839l.819.772L256,222.216V73.684l-1.205-.295L218.832,93.5l.181.867" fill="#5f5f5f"/>
  <path id="Path_69" data-name="Path 69" d="M37.57,201.829l90.867,52.715V295.9L0,221.925V73.975l1.318-.2L37.177,94.624l.393,1.194V201.829" fill="#989898"/>
  <path id="Path_70" data-name="Path 70" d="M37.57,95.818,0,73.975,128.146,0,256,73.684,219.013,94.362,128.146,42.521,37.57,95.818" fill="#dfdfdf"/>
  <path id="Path_71" data-name="Path 71" d="M126.878,189.638l-.984-1V148.608l.984-.508.239-.987L161.432,127.1l1.05.235v41.242l-35.6,21.065" fill="#2f406a"/>
  <path id="Path_72" data-name="Path 72" d="M90.68,169.858V127.035l1-.049L126.581,147.3l.3.8v41.538l-36.2-19.78" fill="#2379bd"/>
  <path id="Path_73" data-name="Path 73" d="M126.284,105.969l-35.6,21.066,36.2,21.065,35.6-20.769-36.2-21.362" fill="#03afef"/>
  <path id="Path_74" data-name="Path 74" d="M82.57,215.748l-.983-1V174.717l.983-.507.24-.987,34.314-20.017,1.05.235v41.241l-35.6,21.066" fill="#575757"/>
  <path id="Path_75" data-name="Path 75" d="M46.373,195.968V153.144l.994-.049L82.273,173.41l.3.8v41.538l-36.2-19.78" fill="#989898"/>
  <path id="Path_76" data-name="Path 76" d="M81.977,132.079l-35.6,21.065,36.2,21.066,35.6-20.769-36.2-21.362" fill="#c5c5c5"/>
  <path id="Path_77" data-name="Path 77" d="M174.35,216.737l-.984-1V175.706l.984-.507.239-.987L208.9,154.195l1.05.235v41.241l-35.6,21.066" fill="#5f5f5f"/>
  <path id="Path_78" data-name="Path 78" d="M138.152,196.957V154.133l.995-.049L174.053,174.4l.3.8v41.538l-36.2-19.78" fill="#989898"/>
  <path id="Path_79" data-name="Path 79" d="M173.756,133.068l-35.6,21.065,36.2,21.066,35.6-20.769-36.2-21.362" fill="#c5c5c5"/>
  <path id="Path_80" data-name="Path 80" d="M130.042,242.847l-.983-1V201.816l.983-.507.24-.988L164.6,180.3l1.049.235v41.241l-35.6,21.066" fill="#5f5f5f"/>
  <path id="Path_81" data-name="Path 81" d="M93.845,223.067V180.243l.994-.049,34.907,20.314.3.8v41.538l-36.2-19.78" fill="#989898"/>
  <path id="Path_82" data-name="Path 82" d="M129.449,159.177l-35.6,21.066,36.2,21.066,35.6-20.769-36.2-21.363" fill="#c5c5c5"/>
  <path id="Path_83" data-name="Path 83" d="M126.878,132.87l-.984-1.005V91.839l.984-.507.239-.988,34.315-20.016,1.05.235V111.8l-35.6,21.066" fill="#575757"/>
  <path id="Path_84" data-name="Path 84" d="M90.68,113.09V70.266l1-.049,34.906,20.314.3.8V132.87l-36.2-19.78" fill="#989898"/>
  <path id="Path_85" data-name="Path 85" d="M126.284,49.2,90.68,70.266l36.2,21.066,35.6-20.769L126.284,49.2" fill="#dfdfdf"/>
  <path id="Path_86" data-name="Path 86" d="M82.57,158.979l-.983-1V117.949l.983-.508.24-.987,34.314-20.017,1.05.235v41.242l-35.6,21.065" fill="#575757"/>
  <path id="Path_87" data-name="Path 87" d="M46.373,139.2V96.376l.994-.049,34.906,20.314.3.8v41.538l-36.2-19.78" fill="#909090"/>
  <path id="Path_88" data-name="Path 88" d="M81.977,75.31l-35.6,21.066,36.2,21.065,35.6-20.769L81.977,75.31" fill="#dfdfdf"/>
  <path id="Path_89" data-name="Path 89" d="M174.35,159.968l-.984-1V118.938l.984-.508.239-.987L208.9,97.426l1.05.235V138.9l-35.6,21.065" fill="#5f5f5f"/>
  <path id="Path_90" data-name="Path 90" d="M138.152,140.188V97.365l.995-.049,34.906,20.314.3.8v41.538l-36.2-19.78" fill="#989898"/>
  <path id="Path_91" data-name="Path 91" d="M173.756,76.3l-35.6,21.066,36.2,21.065,35.6-20.769L173.756,76.3" fill="#dfdfdf"/>
  <path id="Path_92" data-name="Path 92" d="M130.042,186.078l-.983-1V145.047l.983-.507.24-.987L164.6,123.536l1.049.235v41.241l-35.6,21.066" fill="#5f5f5f"/>
  <path id="Path_93" data-name="Path 93" d="M93.845,166.3V123.474l.994-.049,34.907,20.315.3.8v41.538l-36.2-19.78" fill="#989898"/>
  <path id="Path_94" data-name="Path 94" d="M129.449,102.408l-35.6,21.066,36.2,21.066,35.6-20.769-36.2-21.363" fill="#dfdfdf"/>
</svg>
