<svg xmlns="http://www.w3.org/2000/svg" width="50.26" height="50.26" viewBox="0 0 50.26 50.26">
  <g id="bootstrap-4" transform="translate(0 0)">
    <path id="Subtraction_3" data-name="Subtraction 3" d="M-1698.22-442.74h-37.3a6.488,6.488,0,0,1-6.481-6.48v-37.3A6.488,6.488,0,0,1-1735.52-493h37.3a6.488,6.488,0,0,1,6.48,6.481v37.3A6.487,6.487,0,0,1-1698.22-442.74Zm-29.63-40.345h0v30.431h14.747a15.618,15.618,0,0,0,3.984-.511,10.713,10.713,0,0,0,3.452-1.577,7.809,7.809,0,0,0,2.408-2.749,8.415,8.415,0,0,0,.895-3.985,8.472,8.472,0,0,0-1.385-4.88,7.346,7.346,0,0,0-4.2-2.834,7.616,7.616,0,0,0,3.091-2.515,6.7,6.7,0,0,0,1.044-3.836,8.2,8.2,0,0,0-.7-3.58,5.872,5.872,0,0,0-1.982-2.323,8.6,8.6,0,0,0-3.069-1.257,19.05,19.05,0,0,0-3.964-.383ZM-1714-457.854h-7.16v-8.353h7.288a5.655,5.655,0,0,1,3.495,1,3.948,3.948,0,0,1,1.321,3.345,4.2,4.2,0,0,1-.4,1.96,3.217,3.217,0,0,1-1.086,1.215,4.614,4.614,0,0,1-1.577.639A8.978,8.978,0,0,1-1714-457.854Zm-.383-12.914h-6.777v-7.117h6.265a9.748,9.748,0,0,1,1.726.149,4.3,4.3,0,0,1,1.471.533,2.847,2.847,0,0,1,1.023,1.066,3.554,3.554,0,0,1,.383,1.747,3.231,3.231,0,0,1-1.151,2.77A4.828,4.828,0,0,1-1714.381-470.768Z" transform="translate(1742 493)" fill="#fff"/>
  </g>
</svg>
