<svg xmlns="http://www.w3.org/2000/svg" width="46" height="52.616" viewBox="0 0 46 52.616">
  <path id="html-5" d="M27.3,1.742l3.415,43.687a1.616,1.616,0,0,0,1.123,1.414l17.969,5.7a1.616,1.616,0,0,0,.977,0l17.969-5.7a1.616,1.616,0,0,0,1.123-1.414L73.29,1.742A1.616,1.616,0,0,0,71.679,0H28.911A1.616,1.616,0,0,0,27.3,1.742ZM64.533,15.3H42.277l.672,6.194h21.1l-1.38,17.657L50.295,43.07,37.921,39.147,37.2,29.922h6.495v4.525l6.774,1.818L57.2,34.447l.522-7.211H36.99L35.614,9.625H64.976Z" transform="translate(-27.295)" fill="#fff"/>
</svg>
