<svg xmlns="http://www.w3.org/2000/svg" width="49.537" height="47.75" viewBox="0 0 49.537 47.75">
  <path id="jquery-icon" d="M3.259,11.676c-4.383,6.3-3.841,14.5-.489,21.219.077.161.163.319.245.477l.155.3c.031.059.065.116.1.173.057.108.116.208.175.313l.321.548.183.3.372.581.158.245c.175.26.353.52.537.774l.105.142q.239.329.489.651l.186.235.452.558.173.208c.206.243.418.485.63.72a.479.479,0,0,1,.037.04q.316.342.641.675l.206.208.511.5.209.2q.345.325.7.638l.768.651.263.211.531.415.283.217.6.427.279.2c.191.132.384.257.579.383l.251.167q.448.285.906.554l.251.155.681.381c.124.067.251.13.376.194l.486.252.113.054.2.1.771.356.163.073q.447.195.9.373l.217.087.849.314.108.037q.47.162.945.31l.229.068a7.949,7.949,0,0,0,.976.276C42.29,51.5,48.448,34.889,48.448,34.889c-5.173,6.741-14.358,8.519-23.078,6.539-.33-.074-.651-.177-.971-.273l-.242-.073q-.47-.145-.936-.305l-.129-.046q-.414-.147-.824-.305l-.232-.093q-.449-.177-.891-.372l-.178-.077-.751-.35L20,39.43c-.2-.093-.387-.2-.581-.31l-.387-.2c-.235-.124-.465-.257-.7-.39L18.1,38.4q-.457-.27-.906-.554c-.082-.053-.163-.108-.245-.163l-.644-.429a2.005,2.005,0,0,1-.208-.146l-.61-.441-.271-.2-.55-.431-.245-.2-.685-.578q-.037-.033-.077-.062l-.72-.655-.2-.2-.514-.511-.2-.2c-.217-.221-.427-.445-.62-.672a.323.323,0,0,1-.031-.034q-.329-.361-.644-.734l-.155-.2-.465-.573L9.953,31.2l-.536-.712C4.557,23.9,2.819,14.8,6.682,7.335m10.191-.968c-3.172,4.564-3,10.687-.527,15.5a20.227,20.227,0,0,0,1.4,2.342,11.121,11.121,0,0,0,1.632,2.038c.229.252.468.5.712.739l.186.186q.355.346.726.675c.011.008.019.019.031.026.282.248.567.465.857.709l.192.15q.436.336.889.649L23,29.4c.133.093.269.178.406.268.065.042.127.087.192.127q.325.208.658.4l.093.054.582.31c.068.039.155.071.208.108l.407.211c.02.011.042.019.062.028q.419.209.849.395l.186.077q.346.147.7.282l.3.108q.318.116.64.221l.29.093a7.7,7.7,0,0,0,.925.268c16.376,2.714,20.157-9.913,20.157-9.913-3.407,4.91-10.006,7.249-17.05,5.421q-.467-.123-.928-.268c-.093-.028-.186-.059-.279-.09l-.651-.223-.31-.108q-.351-.135-.7-.282l-.189-.077q-.432-.188-.855-.4l-.429-.217-.248-.127q-.273-.148-.542-.305l-.13-.073q-.332-.195-.657-.4c-.067-.042-.132-.088-.2-.132l-.426-.282q-.45-.312-.883-.647l-.2-.155a19.658,19.658,0,0,1-6.688-9.532A14.787,14.787,0,0,1,19.444,2.682M28.322,2.4a9.55,9.55,0,0,0-.756,9.208,13.03,13.03,0,0,0,7.444,6.97l.406.155.18.056.584.155c9.042,1.747,11.493-4.64,12.148-5.581-2.148,3.093-5.759,3.835-10.188,2.76-.35-.085-.734-.212-1.072-.331a13.1,13.1,0,0,1-1.273-.528A13.165,13.165,0,0,1,33.562,13.9C29.6,10.894,27.136,5.141,29.722.47" transform="translate(-0.113 -0.47)" fill="#fff"/>
</svg>
