<svg xmlns="http://www.w3.org/2000/svg" width="50.5" height="50.501" viewBox="0 0 50.5 50.501">
  <g id="toolsicon" transform="translate(-0.375 -0.001)">
    <path id="Path_8" data-name="Path 8" d="M18.271,16.348a.9.9,0,0,1,.417.236L31.546,29.443l2.327-2.326L21.014,14.258a.9.9,0,0,1-.237-.418l-.809-3.226L14.6,7.547l-2.627,2.627,3.068,5.368Zm0,0" transform="translate(-11.259 -7.323)" fill="#164869"/>
    <path id="Path_9" data-name="Path 9" d="M18.445,38.356l20.4-20.4a.9.9,0,0,1,.854-.237A8.95,8.95,0,0,0,50.874,9c0-.169,0-.339-.016-.511l-4.746,4.745a.9.9,0,0,1-.92.217l-5.4-1.8a.9.9,0,0,1-.569-.568l-1.8-5.4a.9.9,0,0,1,.217-.92L42.389.018a8.952,8.952,0,0,0-9.228,11.155.9.9,0,0,1-.236.855l-20.4,20.4a.908.908,0,0,1-.855.237,8.863,8.863,0,0,0-2.175-.28,9.057,9.057,0,1,0,8.716,6.822A.9.9,0,0,1,18.445,38.356Zm-6.764,6.627H7.3l-2.16-3.6,2.16-3.6h4.379l2.159,3.6Zm3.472-10.532L34.945,14.659l1.272,1.272L16.425,35.723Zm0,0" transform="translate(0 0)" fill="#164869"/>
    <path id="Path_10" data-name="Path 10" d="M1459.5,1462.166a5.455,5.455,0,0,0,7.026-7.026Zm0,0" transform="translate(-1416.002 -1412.134)" fill="#164869"/>
    <path id="Path_11" data-name="Path 11" d="M892.6,880.443l-10.1-10.108a2.808,2.808,0,0,1-3.958-3.953l-1.431-1.433-7.724,7.725,1.44,1.439a2.808,2.808,0,0,1,3.958,3.953l10.1,10.1c.11.11.226.212.344.311l7.692-7.692C892.813,880.669,892.711,880.553,892.6,880.443Zm-5.334,3.662-9-9,1.272-1.272,9,9Zm0,0" transform="translate(-843.326 -839.385)" fill="#164869"/>
  </g>
</svg>
