<svg xmlns="http://www.w3.org/2000/svg" width="52.649" height="51.816" viewBox="0 0 52.649 51.816">
  <path id="js" d="M128,128h52.649v51.816H128V128m13.835,43.3a7.7,7.7,0,0,0,7.429,4.462c4.387,0,7.4-2.3,7.4-7.341V151.778h-4.972V168.3c0,2.476-1.024,3.109-2.632,3.109-1.7,0-2.4-1.151-3.188-2.5l-4.036,2.389m17.491-.518c1.462,2.821,4.417,4.98,9.038,4.98,4.68,0,8.19-2.389,8.19-6.794,0-4.059-2.369-5.873-6.581-7.657l-1.228-.518c-2.135-.892-3.042-1.5-3.042-2.936a2.145,2.145,0,0,1,2.369-2.1,3.4,3.4,0,0,1,3.188,2.1l3.832-2.5c-1.609-2.764-3.89-3.829-7.02-3.829-4.417,0-7.254,2.764-7.254,6.419,0,3.973,2.369,5.844,5.938,7.341l1.228.518c2.281.979,3.627,1.583,3.627,3.253,0,1.382-1.316,2.389-3.364,2.389a5.375,5.375,0,0,1-4.885-2.965l-4.036,2.3Z" transform="translate(-128 -128)" fill="#ffca28"/>
</svg>
