<svg xmlns="http://www.w3.org/2000/svg" width="63.998" height="47.97" viewBox="0 0 63.998 47.97">
  <path id="sass-lang-icon" d="M55.094,35.56a13.189,13.189,0,0,0-5.8,1.35,11.942,11.942,0,0,1-1.3-3,8.3,8.3,0,0,1-.113-2.525,20.147,20.147,0,0,1,.763-2.725c-.012-.113-.138-.663-1.425-.675s-2.4.25-2.525.588a14.36,14.36,0,0,0-.538,1.913c-.225,1.175-2.575,5.338-3.913,7.526a7.662,7.662,0,0,1-.888-2.2,8.3,8.3,0,0,1-.113-2.525,20.147,20.147,0,0,1,.763-2.725c-.012-.113-.138-.663-1.425-.675s-2.4.25-2.525.588-.263,1.138-.538,1.913-3.388,7.726-4.2,9.538c-.413.925-.775,1.663-1.038,2.163s-.012.038-.037.088l-.35.663v.012c-.175.313-.363.613-.45.613a4.172,4.172,0,0,1,.025-1.988c.463-2.413,1.588-6.176,1.575-6.313,0-.062.213-.725-.725-1.063A1.139,1.139,0,0,0,29,36.326c-.075,0-.138.2-.138.2s1.013-4.238-1.938-4.238c-1.85,0-4.4,2.013-5.663,3.85l-6.376,3.488-.138-.15C11.178,35.66,4.565,32.96,4.84,27.835c.1-1.863.75-6.776,12.7-12.726,9.788-4.875,17.627-3.538,18.99-.563,1.938,4.25-4.188,12.15-14.364,13.29-3.875.438-5.913-1.063-6.426-1.625-.538-.588-.613-.613-.813-.5-.325.175-.125.7,0,1.013A6.032,6.032,0,0,0,18.6,29.612c1.863.613,6.413.95,11.914-1.175,6.163-2.388,10.976-9.013,9.563-14.55C38.641,8.249,29.291,6.4,20.452,9.537,15.19,11.41,9.5,14.334,5.4,18.172.515,22.722-.26,26.7.064,28.348c1.138,5.888,9.25,9.726,12.5,12.564l-.45.25c-1.625.8-7.813,4.038-9.363,7.463C1,52.5,3.026,55.288,4.376,55.663A9.989,9.989,0,0,0,15.139,51.3a10.8,10.8,0,0,0,.963-9.938l-.038-.075,1.275-.75c.825-.488,1.638-.938,2.35-1.325a15.565,15.565,0,0,0-.838,4.25c-.175,2.2.725,5.05,1.913,6.176a2.114,2.114,0,0,0,1.538.5c1.375,0,2-1.138,2.688-2.5.85-1.663,1.6-3.588,1.6-3.588s-.938,5.213,1.625,5.213c.938,0,1.875-1.213,2.3-1.838v.012s.025-.038.075-.125c.1-.15.15-.238.15-.238v-.025c.375-.65,1.213-2.138,2.463-4.6,1.613-3.175,3.163-7.15,3.163-7.15a22.766,22.766,0,0,0,.613,2.575,24.566,24.566,0,0,0,1.338,3l-.6.825.012.013q-.48.636-.988,1.25a36.321,36.321,0,0,0-3,3.763,1.029,1.029,0,0,0,.275,1.375,2.5,2.5,0,0,0,1.575.25,7.014,7.014,0,0,0,2.35-.538,8.14,8.14,0,0,0,2.025-1.063A4.51,4.51,0,0,0,41.9,42.761a8.018,8.018,0,0,0-.738-2.813l.338-.5A52.784,52.784,0,0,0,45,33.385a22.766,22.766,0,0,0,.613,2.575,18.1,18.1,0,0,0,1.138,2.575,11.119,11.119,0,0,0-3.413,4.413c-.738,2.125-.163,3.088.925,3.313a3.329,3.329,0,0,0,1.713-.35A7.759,7.759,0,0,0,48.143,44.8a4.892,4.892,0,0,0,2.388-3.95,7.576,7.576,0,0,0-.538-2.338,12.184,12.184,0,0,1,6.2-.713c5.563.65,6.663,4.125,6.45,5.575a3.735,3.735,0,0,1-1.763,2.5c-.388.238-.513.325-.475.5.05.263.225.25.563.2a4.327,4.327,0,0,0,3.025-3.863c.15-3.438-3.113-7.188-8.9-7.15ZM12.19,50.025C10.352,52.038,7.765,52.8,6.665,52.15,5.477,51.462,5.94,48.5,8.2,46.362a29.456,29.456,0,0,1,4.338-3.238l1.138-.688a1.3,1.3,0,0,1,.125-.075c.088-.05.188-.113.288-.175a7.972,7.972,0,0,1-1.9,7.838Zm13.44-9.138c-.638,1.563-1.988,5.575-2.8,5.35-.7-.188-1.125-3.225-.138-6.226A13.893,13.893,0,0,1,24.88,36c1.013-1.125,2.113-1.5,2.388-1.038.325.6-1.238,4.95-1.638,5.926Zm11.088,5.3c-.275.138-.525.238-.638.163-.088-.05.113-.238.113-.238s1.388-1.488,1.938-2.175l1.088-1.388v.15c0,1.8-1.725,3-2.5,3.488Zm8.55-1.95c-.2-.15-.175-.613.5-2.063a7.736,7.736,0,0,1,1.9-2.45,3.11,3.11,0,0,1,.188,1.075A3.519,3.519,0,0,1,45.268,44.237Z" transform="translate(0 -8.017)" fill="#cf649a"/>
</svg>
