<svg xmlns="http://www.w3.org/2000/svg" width="1920.001" height="1080" viewBox="0 0 1920.001 1080">
  <g id="caback" transform="translate(0 0.197)">
    <g id="caback-2" data-name="caback" transform="translate(0 842.271)">
      <path id="Path_4" data-name="Path 4" d="M0,39.318S243.127-38.7,667.719-2.446c203.8,17.4,486.842,68.9,740.612,70.769C1682.554,70.346,1920-2.446,1920-2.446V225.478H0Z" transform="translate(0 12.054)" fill="#489ec0"/>
      <path id="reversewave" d="M1920,54.055H0V34.374l.022-.005C1.109,34.138,11.177,32.032,29.5,29c17.787-2.94,47.223-7.376,86.45-11.816,44.083-4.99,91.288-8.965,140.306-11.816C317.529,1.807,381.815,0,447.333,0c34.5,0,69.892.5,105.2,1.5,37.845,1.067,76.6,2.725,115.186,4.93,70.137,4.007,149.8,10.728,234.143,17.843l.019,0h.011c81.364,6.865,165.5,13.963,251.178,19.539,46.4,3.02,88.448,5.283,128.556,6.921,44.758,1.828,87.387,2.853,126.7,3.047,3.737.019,7.526.028,11.26.028,61.459,0,126.01-2.491,191.862-7.4,52.681-3.93,106.306-9.41,159.385-16.287C1818.058,24,1856.1,17.885,1879.7,13.832c25.493-4.379,40.153-7.374,40.3-7.4V54.054Z" transform="translate(1920.001 179.243) rotate(180)" fill="#489ec0"/>
    </g>
    <rect id="Rectangle_23" data-name="Rectangle 23" width="1920" height="444" transform="translate(0 -0.197)" fill="none"/>
  </g>
</svg>
