<svg xmlns="http://www.w3.org/2000/svg" width="100%" height="100%" fill="none" viewBox="0 0 181 73"><path fill="#FFCF29" fill-rule="evenodd" d="M39.86 58.744c-3.478 0-5.415 3.81-2.825 6.132A31.72 31.72 0 0058.28 73a31.72 31.72 0 0021.244-8.124c2.59-2.323.653-6.132-2.826-6.132-1.117 0-2.18.443-3.043 1.152a24.135 24.135 0 01-15.376 5.5 24.135 24.135 0 01-15.375-5.5c-.863-.71-1.926-1.152-3.044-1.152z" clip-rule="evenodd"></path><path fill="#FF9A6F" fill-rule="evenodd" d="M76.625 14.256c3.479 0 5.416-3.81 2.825-6.132A31.72 31.72 0 0058.206 0 31.72 31.72 0 0036.96 8.124c-2.59 2.322-.653 6.132 2.826 6.132 1.117 0 2.18-.443 3.043-1.152a24.135 24.135 0 0115.376-5.5 24.135 24.135 0 0115.375 5.5c.863.71 1.927 1.152 3.044 1.152z" clip-rule="evenodd"></path><path fill="#1E1A3D" d="M17.035 50.167c-3.206 0-6.113-.69-8.72-2.068-2.577-1.408-4.614-3.34-6.113-5.798C.734 39.814 0 37.012 0 33.896c0-3.117.734-5.903 2.202-8.36 1.499-2.487 3.536-4.42 6.113-5.799 2.607-1.408 5.529-2.112 8.765-2.112 2.727 0 5.184.48 7.371 1.438 2.218.96 4.076 2.338 5.574 4.135l-4.675 4.315c-2.127-2.457-4.764-3.685-7.91-3.685-1.948 0-3.686.434-5.214 1.303a9.106 9.106 0 00-3.596 3.551c-.84 1.528-1.259 3.266-1.259 5.214 0 1.948.42 3.686 1.259 5.214a9.421 9.421 0 003.596 3.596c1.528.839 3.266 1.258 5.214 1.258 3.146 0 5.783-1.243 7.91-3.73l4.675 4.314c-1.498 1.828-3.356 3.222-5.574 4.18-2.217.96-4.69 1.439-7.416 1.439zM45.12 49.987c-2.547 0-4.84-.524-6.877-1.573-2.008-1.079-3.58-2.562-4.72-4.45-1.138-1.888-1.707-4.03-1.707-6.427 0-2.398.569-4.54 1.708-6.428 1.138-1.888 2.712-3.356 4.72-4.405 2.037-1.078 4.33-1.618 6.876-1.618 2.547 0 4.824.54 6.832 1.618 2.008 1.05 3.58 2.517 4.72 4.405 1.138 1.888 1.708 4.03 1.708 6.428 0 2.397-.57 4.54-1.709 6.427-1.138 1.888-2.711 3.371-4.719 4.45-2.008 1.049-4.285 1.573-6.832 1.573zm0-5.753c1.798 0 3.266-.6 4.405-1.798 1.169-1.229 1.753-2.862 1.753-4.9 0-2.037-.584-3.655-1.753-4.854-1.139-1.228-2.607-1.843-4.405-1.843s-3.281.615-4.45 1.843c-1.168 1.199-1.753 2.817-1.753 4.855 0 2.037.585 3.67 1.753 4.899 1.169 1.199 2.652 1.798 4.45 1.798zM74.573 49.987c-2.547 0-4.84-.524-6.877-1.573-2.008-1.079-3.58-2.562-4.72-4.45-1.138-1.888-1.707-4.03-1.707-6.427 0-2.398.569-4.54 1.707-6.428 1.14-1.888 2.712-3.356 4.72-4.405 2.038-1.078 4.33-1.618 6.877-1.618 2.547 0 4.824.54 6.832 1.618 2.007 1.05 3.58 2.517 4.72 4.405 1.138 1.888 1.707 4.03 1.707 6.428 0 2.397-.569 4.54-1.708 6.427-1.138 1.888-2.712 3.371-4.72 4.45-2.007 1.049-4.284 1.573-6.831 1.573zm0-5.753c1.798 0 3.266-.6 4.405-1.798 1.168-1.229 1.753-2.862 1.753-4.9 0-2.037-.585-3.655-1.753-4.854-1.139-1.228-2.607-1.843-4.405-1.843s-3.281.615-4.45 1.843c-1.169 1.199-1.753 2.817-1.753 4.855 0 2.037.584 3.67 1.753 4.899 1.169 1.199 2.652 1.798 4.45 1.798zM108.116 48.459c-.689.51-1.543.899-2.562 1.168-.989.24-2.038.36-3.146.36-2.877 0-5.11-.734-6.698-2.202-1.558-1.469-2.337-3.626-2.337-6.473V31.38h-3.73v-5.394h3.73v-5.888h7.012v5.888h6.023v5.394h-6.023v9.843c0 1.02.255 1.813.764 2.383.539.539 1.288.809 2.247.809 1.109 0 2.053-.3 2.832-.9l1.888 4.945zM126.345 25.086c2.248 0 4.285.525 6.113 1.573 1.858 1.02 3.311 2.473 4.36 4.36 1.049 1.858 1.573 4.03 1.573 6.518 0 2.487-.524 4.674-1.573 6.562a11.29 11.29 0 01-4.36 4.36c-1.828 1.019-3.865 1.528-6.113 1.528-3.326 0-5.858-1.049-7.596-3.146v2.786h-6.697v-33.35h7.012v11.73c1.768-1.947 4.195-2.92 7.281-2.92zm-1.213 19.148c1.797 0 3.266-.6 4.404-1.798 1.169-1.229 1.753-2.862 1.753-4.9 0-2.037-.584-3.655-1.753-4.854-1.138-1.228-2.607-1.843-4.404-1.843-1.798 0-3.282.615-4.45 1.843-1.139 1.199-1.708 2.817-1.708 4.855 0 2.037.569 3.67 1.708 4.899 1.168 1.199 2.652 1.798 4.45 1.798zM143.085 25.446h7.012v24.181h-7.012V25.446zm3.506-3.371c-1.289 0-2.338-.375-3.147-1.124-.809-.75-1.213-1.678-1.213-2.787 0-1.108.404-2.037 1.213-2.786.809-.75 1.858-1.124 3.147-1.124 1.288 0 2.337.36 3.146 1.079.809.719 1.214 1.618 1.214 2.696 0 1.17-.405 2.143-1.214 2.922-.809.75-1.858 1.124-3.146 1.124zM180.291 37.627c0 .09-.045.719-.134 1.887h-18.294c.33 1.498 1.109 2.682 2.337 3.551 1.229.87 2.757 1.304 4.585 1.304 1.258 0 2.367-.18 3.326-.54.989-.39 1.903-.989 2.742-1.798l3.73 4.046c-2.277 2.607-5.603 3.91-9.978 3.91-2.727 0-5.139-.524-7.236-1.573-2.098-1.079-3.716-2.562-4.855-4.45-1.138-1.888-1.708-4.03-1.708-6.427 0-2.368.555-4.495 1.663-6.383a11.802 11.802 0 014.63-4.45c1.978-1.078 4.18-1.618 6.607-1.618 2.367 0 4.51.51 6.428 1.528 1.917 1.02 3.416 2.488 4.494 4.405 1.109 1.888 1.663 4.09 1.663 6.608zm-12.54-7.237c-1.588 0-2.921.45-4 1.348-1.079.9-1.738 2.128-1.978 3.686h11.911c-.24-1.528-.899-2.742-1.978-3.64-1.078-.93-2.397-1.394-3.955-1.394z"></path></svg>