<svg xmlns="http://www.w3.org/2000/svg" xmlns:xlink="http://www.w3.org/1999/xlink" width="951" height="781.827" viewBox="0 0 951 781.827">
  <defs>
    <style>
      .cls-1, .cls-10, .cls-9 {
        fill: #fff;
      }

      .cls-1 {
        stroke: #707070;
      }

      .cls-2 {
        fill: #f9f9f9;
        stroke: #dfdfdf;
      }

      .cls-3 {
        clip-path: url(#clip-path);
      }

      .cls-15, .cls-16, .cls-4, .cls-8 {
        fill: #164869;
      }

      .cls-5 {
        fill: #343434;
      }

      .cls-6 {
        fill: #111;
      }

      .cls-7 {
        opacity: 0.69;
      }

      .cls-12, .cls-8 {
        opacity: 0.68;
      }

      .cls-9 {
        font-size: 14px;
        font-family: Raleway-Regular, Raleway;
      }

      .cls-11, .cls-12 {
        fill: #50a7e1;
      }

      .cls-13, .cls-14 {
        fill: #1f8745;
      }

      .cls-14 {
        opacity: 0.4;
      }

      .cls-15 {
        font-size: 65px;
        font-family: Raleway-SemiBold, Raleway;
        font-weight: 600;
        opacity: 0.26;
      }

      .cls-16 {
        font-size: 32px;
        font-family: Raleway-Thin, Raleway;
        font-weight: 200;
      }

      .cls-17 {
        fill: #becbd3;
        font-size: 11px;
        font-family: Raleway-Light, Raleway;
        font-weight: 300;
      }

      .cls-18 {
        stroke: none;
      }

      .cls-19 {
        fill: none;
      }

      .cls-20 {
        filter: url(#Rectangle_3);
      }

      .cls-21 {
        filter: url(#Rectangle_5);
      }
    </style>
    <filter id="Rectangle_5" x="0" y="0" width="951" height="705" filterUnits="userSpaceOnUse">
      <feOffset dy="10" input="SourceAlpha"/>
      <feGaussianBlur stdDeviation="7.5" result="blur"/>
      <feFlood flood-opacity="0.071"/>
      <feComposite operator="in" in2="blur"/>
      <feComposite in="SourceGraphic"/>
    </filter>
    <clipPath id="clip-path">
      <rect id="Rectangle_1" data-name="Rectangle 1" class="cls-1" width="182.264" height="16.842" transform="translate(346 324)"/>
    </clipPath>
    <filter id="Rectangle_3" x="378" y="480.142" width="195" height="120.261" filterUnits="userSpaceOnUse">
      <feOffset dy="20" input="SourceAlpha"/>
      <feGaussianBlur stdDeviation="7.5" result="blur-2"/>
      <feFlood/>
      <feComposite operator="in" in2="blur-2"/>
      <feComposite in="SourceGraphic"/>
    </filter>
  </defs>
  <g id="Group_10" data-name="Group 10" transform="translate(-702.5 -231.5)">
    <g class="cls-21" transform="matrix(1, 0, 0, 1, 702.5, 231.5)">
      <g id="Rectangle_5-2" data-name="Rectangle 5" class="cls-2" transform="translate(22.5 12.5)">
        <rect class="cls-18" width="906" height="660" rx="13"/>
        <rect class="cls-19" x="0.5" y="0.5" width="905" height="659" rx="12.5"/>
      </g>
    </g>
    <g id="Mask_Group_1" data-name="Mask Group 1" class="cls-3" transform="translate(409 -38)">
      <g id="g915" transform="translate(308.578 323.96)">
        <path id="path881" class="cls-4" d="M607.189-401.542a2.361,2.361,0,0,0-1.592,2.123c-.023.992.484,1.361.6.415s.646-1.154,2.03-.808a6.109,6.109,0,0,0,2.215.138l1.038-.138-.715.992a6.268,6.268,0,0,0-.992,2.561c-.254,1.546-.254,1.546-.992,1.546a2.163,2.163,0,0,0-1.407.577l-.646.577.992-.138c.831-.138,1.084-.069,1.546.369a1.814,1.814,0,0,1,.577,1.061c0,.484-.092.531-.669.415-.669-.138-1.638.208-1.638.6,0,.138.3.231.669.231,1.338,0,1.938,1.315,1.269,2.792a9.907,9.907,0,0,1-2.838,2.907c-.046.046-.046.138.046.208a4.72,4.72,0,0,0,1.615-.461,19.652,19.652,0,0,1,3.138-.877,5.8,5.8,0,0,1,3.207.115,10.353,10.353,0,0,1,2.376.946l.807.554,1.315-1.269c.715-.692,1.246-1.361,1.177-1.5-.092-.115-.369-.023-.669.277l-.508.484-1.361-.738c-1.315-.692-1.453-.715-3.6-.623l-2.238.115,1.107-.992A10.162,10.162,0,0,0,614.8-391.3l.692-1.223-.046-3.6c-.069-3.6-.069-3.622.531-4.2a3,3,0,0,1,1.269-.738c.854-.185.646-.577-.323-.577a4.544,4.544,0,0,0-3.253,1.823c-.484.831-.508,1.384-.369,5.676a6.436,6.436,0,0,1-.392,3.368c-.461,1.038-2.007,2.976-2.376,2.976-.115,0,.115-.554.461-1.223.992-1.823,1.246-3.576.946-6.414-.3-2.976-.115-3.9,1.038-5.076.946-.969.923-1.361-.023-.946a5.556,5.556,0,0,1-3.576-.069C607.882-401.935,608.043-401.912,607.189-401.542Z" transform="translate(-485.765 401.825)"/>
        <path id="path883" class="cls-5" d="M841.694-398.5c-.115.161-.854,3.576-1.661,7.59-1.477,7.383-1.661,7.89-2.607,7.89-.185,0-.254.069-.162.161a7.2,7.2,0,0,0,3.138.023c0-.092-.185-.185-.438-.185-.854,0-.969-.508-.6-2.284.185-.923.346-1.684.346-1.707a11.309,11.309,0,0,1,2.722.161,4.325,4.325,0,0,1,.485,1.569c.161.807.323,1.638.392,1.846.092.3,0,.415-.346.415-.277,0-.484.069-.484.185,0,.254,3.645.3,3.807.023.092-.115-.069-.208-.323-.208a.6.6,0,0,1-.6-.531c-.069-.277-.784-3.622-1.615-7.429C842.109-398.434,841.971-398.965,841.694-398.5Zm.069,7.867c.277,1.338.554,2.607.623,2.815.115.369-.046.415-1.246.415h-1.361l.6-3a10.533,10.533,0,0,1,.738-2.815A16.842,16.842,0,0,1,841.763-390.636Z" transform="translate(-663.952 399.363)"/>
        <path id="path885" class="cls-5" d="M265.546-397.508a3.971,3.971,0,0,0-1.5,3.461c.138,1.5.646,2.422,2.284,4.314,2.007,2.307,2.746,3.668,2.746,5.076,0,1.569-.461,2.192-1.592,2.192-1.338,0-2.607-1.592-2.93-3.668-.277-1.73-.554-.992-.554,1.477a11.245,11.245,0,0,0,.138,2.423c.092,0,.3-.185.461-.415.277-.369.346-.369,1.223.115a3.332,3.332,0,0,0,4.384-.715,2.713,2.713,0,0,0,.669-1.961c.115-1.73-.531-3.253-2.307-5.353-2.053-2.422-2.446-3.045-2.676-4.084-.323-1.407,0-2.446.877-2.815,1.223-.508,2.307.554,2.815,2.722a2.73,2.73,0,0,0,.461,1.2,6.67,6.67,0,0,0,.185-2.261c-.023-2.007-.046-2.192-.346-1.8-.323.438-.369.438-1.154.069A3.508,3.508,0,0,0,265.546-397.508Z" transform="translate(-222.979 398.806)"/>
        <path id="path887" class="cls-5" d="M332.682-397.1c-1.084,1.13-1.407,2.353-1.569,5.929-.185,4.476.623,7.683,2.146,8.629a2.352,2.352,0,0,0,2.584.115c.323-.231.554-.277.646-.115.392.623.577.046.577-1.869,0-1.315-.092-2.03-.231-1.938a.732.732,0,0,0-.231.554,9.689,9.689,0,0,1-.346,1.592c-.438,1.407-1.2,2.076-1.938,1.661-1.015-.531-1.015-.392-.946-13.312,0-.992.9-2.03,1.546-1.823.461.161,1.223,1.592,1.546,3,.254,1.015.438.531.415-1.061,0-2.469,0-2.446-.392-1.938-.323.415-.369.415-.761.069a2.174,2.174,0,0,0-1.315-.392C333.7-398,333.374-397.839,332.682-397.1Z" transform="translate(-274.588 398.882)"/>
        <path id="path889" class="cls-5" d="M391.379-397.769c-.092.138.115.231.438.231h.6v15h-.6c-.323,0-.531.092-.461.185a12.208,12.208,0,0,0,3.991-.023c.069-.092-.069-.161-.346-.161-.508,0-.508-.046-.508-4.014v-4.014l1.384-.092,1.384-.069v4.084c0,4.107,0,4.107-.508,4.107-.415.023-.461.046-.185.208a10.135,10.135,0,0,0,3.83-.046c.092-.092-.115-.161-.438-.161h-.623v-7.5c0-7.337,0-7.5.461-7.5.254,0,.461-.115.461-.231,0-.138-.807-.231-1.961-.231s-1.961.092-1.961.231c0,.115.208.231.461.231.438,0,.461.161.461,3.23v3.23h-2.769v-3.23c0-3.068.023-3.23.461-3.23.254,0,.461-.115.461-.231,0-.138-.808-.231-1.938-.231A5.3,5.3,0,0,0,391.379-397.769Z" transform="translate(-320.942 398.882)"/>
        <path id="path891" class="cls-5" d="M469.858-397.285c-1.107.992-1.523,2.446-1.661,6-.254,5.929,1.061,9.205,3.668,9.205a3.359,3.359,0,0,0,2.746-2.192c.854-1.961,1.13-6.46.577-9.6-.554-3.022-1.453-4.13-3.391-4.13A2.308,2.308,0,0,0,469.858-397.285Zm2.676-.046.554.438.069,6.483c.046,5.514.023,6.575-.3,7.175-.277.531-.508.692-1.038.692-1.43,0-1.477-.577-1.384-13.335a1.859,1.859,0,0,1,.577-1.315C471.681-397.885,471.842-397.908,472.534-397.331Z" transform="translate(-380.041 398.882)"/>
        <path id="path893" class="cls-5" d="M539.848-397.285c-1.084.969-1.5,2.446-1.661,6-.138,3.3.138,5.468.969,7.291,1.223,2.676,4.2,2.538,5.445-.277.854-1.961,1.13-6.46.577-9.6-.554-3.022-1.453-4.13-3.391-4.13A2.308,2.308,0,0,0,539.848-397.285Zm2.676-.046.554.438.069,6.552c.046,7.267,0,7.637-1.269,7.752-1.523.161-1.546-.069-1.453-13.4,0-.623.877-1.776,1.338-1.776A2.078,2.078,0,0,1,542.524-397.331Z" transform="translate(-433.881 398.882)"/>
        <path id="path895" class="cls-5" d="M701.379-397.769c-.092.138.115.231.438.231h.6v15h-.6c-.323,0-.531.092-.461.208.185.277,5.491.138,6.068-.161.831-.461,1.453-2.076,1.453-3.761-.023-1.776-.508-2.861-1.569-3.576-.692-.485-.715-.531-.277-.669a2.887,2.887,0,0,0,1.038-1.154,5.465,5.465,0,0,0,.185-4.684c-.646-1.315-1.569-1.661-4.384-1.661A7.2,7.2,0,0,0,701.379-397.769Zm4.96.669a15.619,15.619,0,0,1,.231,3.23c0,3.069-.162,3.484-1.407,3.484h-.669v-7.152h.808C705.855-397.539,706.154-397.4,706.339-397.1Zm-.023,7.5a14.686,14.686,0,0,1,.3,3.345c.046,2.792.023,3.092-.392,3.391a2.007,2.007,0,0,1-1.084.323h-.646v-3.668c0-2.676.069-3.691.277-3.761A1.8,1.8,0,0,1,706.316-389.6Z" transform="translate(-559.42 398.882)"/>
        <path id="path897" class="cls-5" d="M774.848-397.285c-1.107.992-1.523,2.446-1.661,6-.138,3.322.138,5.491.969,7.291,1.223,2.676,4.2,2.538,5.445-.277.854-1.961,1.13-6.46.577-9.6-.554-3.022-1.453-4.13-3.391-4.13A2.308,2.308,0,0,0,774.848-397.285Zm2.676-.046.554.438.069,6.552c.046,7.267,0,7.637-1.269,7.752-1.384.138-1.453-.161-1.453-7.521v-6.529l.577-.554C776.67-397.885,776.832-397.908,777.524-397.331Z" transform="translate(-614.663 398.882)"/>
        <path id="path899" class="cls-5" d="M910.278-397.727c-.092.138.115.231.438.231h.6v15h-.623c-.323,0-.554.069-.461.138a10.5,10.5,0,0,0,3.737.092c.438-.185.438-.208-.046-.208-.531-.023-.531-.046-.531-3.922,0-3.645.023-3.9.438-4.014a1.954,1.954,0,0,1,.992.161c.508.254.531.415.646,3.368.138,3.461.415,4.361,1.453,4.707a1.481,1.481,0,0,0,1.961-1.015c.046-.554.046-.554-.277-.138a.721.721,0,0,1-.715.3c-.277-.115-.346-.646-.346-3.138,0-2.884-.023-3.022-.6-3.691a1.927,1.927,0,0,0-.969-.715c-.231,0-.092-.185.369-.461,2.1-1.292,1.8-5.86-.415-6.621C914.938-398,910.485-398.05,910.278-397.727Zm4.822.669c.346.369.415.877.392,2.93-.023,2.769-.277,3.322-1.453,3.322h-.646V-397.5h.646A1.648,1.648,0,0,1,915.1-397.058Z" transform="translate(-720.1 398.841)"/>
        <path id="path901" class="cls-5" d="M981.754-397.728c-.115.162.046.254.415.254h.6v15l-.623.023-.646.023.577.161a12.646,12.646,0,0,0,2.63.115c2.676-.115,3.3-.461,4.014-2.284,1.015-2.515.923-9.113-.185-11.582-.646-1.5-1.292-1.776-4.176-1.869C982.723-397.958,981.846-397.889,981.754-397.728Zm4.983.646c.392.346.415.877.415,6.921v6.552l-.577.554a1.9,1.9,0,0,1-1.154.577h-.577v-15h.738A1.877,1.877,0,0,1,986.737-397.082Z" transform="translate(-774.942 398.818)"/>
        <path id="path903" class="cls-6" d="M138.4-387.355c.069.646.069.646-1.269.577-1.661-.069-2.33.231-2.146.992a.6.6,0,0,1-.3.807c-.623.323-.715.3-.715-.208a.849.849,0,0,0-.185-.577c-.277-.161-.046,2.33.3,3.368a1.746,1.746,0,0,1,.092,1.154c-.554.854.046,2.238.831,1.938.461-.161.461-1.061,0-1.061a.333.333,0,0,0-.346.277c0,.208-.069.208-.208-.023-.369-.554.115-1.107,1.107-1.269a1.418,1.418,0,0,0,1.292-.831c.415-.784.162-.923-.461-.231-.969,1.061-2.492-.092-1.961-1.477.277-.784.669-.784.623,0-.046.738.484,1.13,1.292.923a5.718,5.718,0,0,0,2.607-2.238A2.8,2.8,0,0,0,139-387.7C138.543-388.163,138.335-388.024,138.4-387.355Z" transform="translate(-122.716 391.168)"/>
        <path id="path905" class="cls-6" d="M1173.264-387.355c.069.646.069.646-1.269.577-1.661-.069-2.33.231-2.146.992a.586.586,0,0,1-.323.807c-.392.208-.508.161-.692-.369-.138-.346-.277-.577-.323-.531a14.945,14.945,0,0,0,.531,3.83.79.79,0,0,1,0,.784,1.665,1.665,0,0,0,.138,1.823.606.606,0,0,0,1.038-.461c0-.508-.346-.623-.6-.208-.092.185-.208.161-.346-.046-.323-.508.208-1.061,1.154-1.223a1.418,1.418,0,0,0,1.292-.831c.415-.784.161-.923-.461-.231a1.237,1.237,0,0,1-2.053-1.315c.3-.854.761-.946.715-.185s.484,1.154,1.292.946a5.718,5.718,0,0,0,2.607-2.238,2.8,2.8,0,0,0,.046-2.469C1173.4-388.163,1173.2-388.024,1173.264-387.355Z" transform="translate(-918.787 391.168)"/>
        <path id="path907" class="cls-6" d="M86.384-386.349a3.837,3.837,0,0,0,.415,3.207c.508.692,1.43.946,1.43.392,0-.231.208-.369.577-.369.484,0,.577.115.577.669,0,1.592,1.038,3.022,2.192,3.022,1.015,0,1.569-.484,1.615-1.407a4.38,4.38,0,0,1,.323-1.338.821.821,0,0,0-.092-1.084,2.2,2.2,0,0,0-.946-.784c-.531-.208-.784-.923-.323-.923a.231.231,0,0,0,.231-.231c0-.415-.669-.231-1.015.277a4.846,4.846,0,0,0-.023,3.645c.415.784.531.831.923.3.415-.577.623,0,.208.6a.969.969,0,0,1-.969.438c-.508-.046-.623-.185-.646-.761-.046-1.154-.092-1.269-.346-1.269-.138,0-.208.208-.138.461.138.554-.185.623-.392.092a4.226,4.226,0,0,1,1.084-3.922c.992-.831,3.115-.646,2.261.208-.3.3-.346,1.084-.023,1.084.115,0,.3-.185.438-.392.185-.346.254-.346.6-.069a4.248,4.248,0,0,1,1.038,1.753c0,.069-.161.092-.346,0-.461-.161-1.292.669-1.13,1.131.208.508.484.438.646-.185.138-.508.161-.508.715.185.554.669.577.669.9.231.346-.438.392-.415.461.115.046.392.485.369.554-.046.046-.208-.185-.554-.485-.761-.508-.323-.554-.438-.369-1.384A3.4,3.4,0,0,1,97.735-386a1.6,1.6,0,0,1,1.638-.484c.808.138.9.115.623-.208a1.633,1.633,0,0,0-1.154-.346,3.333,3.333,0,0,0-2.792,2.123l-.461.9-.669-.923c-1.061-1.43-1.615-1.73-3.115-1.523-1.061.115-1.269.092-1.269-.208,0-.208-.092-.369-.208-.369-.415,0-.531.508-.254,1.061.277.484.231.646-.323,1.5-.346.508-.692.877-.784.807-.069-.092,0-.277.138-.415a1.027,1.027,0,0,0-.9-1.73c-.784.208-1.154-.046-.992-.669C87.422-387.318,86.73-387.2,86.384-386.349Z" transform="translate(-86.2 390.461)"/>
        <path id="path909" class="cls-6" d="M1121.384-386.349a3.837,3.837,0,0,0,.415,3.207c.507.692,1.43.946,1.43.392,0-.231.208-.369.554-.369.485,0,.554.138.692,1.154.208,1.523,1.038,2.538,2.123,2.538a1.52,1.52,0,0,0,1.661-1.592,1.74,1.74,0,0,1,.277-1.061c.277-.346.277-.461-.023-.992a2.482,2.482,0,0,0-.969-.923c-.6-.3-.877-.969-.392-.969a.231.231,0,0,0,.231-.231c0-.415-.669-.231-1.015.277a4.847,4.847,0,0,0-.023,3.645c.415.807.531.831.946.277.277-.369.3-.369.323.092a.983.983,0,0,1-1.2.969c-.415-.046-.531-.231-.554-.761-.046-1.154-.092-1.269-.346-1.269-.138,0-.208.208-.138.461.138.554-.185.623-.392.092a4.225,4.225,0,0,1,1.084-3.922c.992-.831,3.115-.646,2.261.208-.3.3-.346,1.084-.023,1.084.115,0,.3-.185.438-.392.185-.346.254-.346.6-.069a4.248,4.248,0,0,1,1.038,1.753c0,.069-.161.092-.346,0-.461-.161-1.292.669-1.131,1.131.208.508.554.438.554-.115,0-.646.346-.577.9.161.438.646.461.646.807.185.323-.461.346-.461.554.115.208.531.254.531.415.138.115-.323.023-.554-.392-.9-.9-.715-.461-2.7.877-3.876a1.7,1.7,0,0,1,1.753-.577c.807.138.9.115.623-.208a1.633,1.633,0,0,0-1.154-.346,3.333,3.333,0,0,0-2.792,2.123l-.461.9-.669-.923c-1.061-1.43-1.615-1.73-3.115-1.523-1.061.115-1.269.092-1.269-.208,0-.208-.092-.369-.208-.369-.415,0-.531.508-.254,1.061.277.484.231.646-.323,1.5-.346.508-.692.877-.784.807-.069-.092,0-.277.138-.415a1.027,1.027,0,0,0-.9-1.73c-.785.208-1.154-.046-.992-.669C1122.422-387.318,1121.73-387.2,1121.384-386.349Z" transform="translate(-882.411 390.461)"/>
        <path id="path911" class="cls-6" d="M113.614-359.665a2.4,2.4,0,0,0-.392.807c-.138.415-.346.531-.923.531a1.719,1.719,0,0,0-1.015.277c-.346.346-.369,1.246-.046,1.454.138.092.231-.161.231-.554,0-.6.092-.715.554-.715.623,0,1.177.554.946.923a.691.691,0,0,1-.646.185c-.784-.115-1.038,1.246-.461,2.469l.415.923.069-1.061a2.453,2.453,0,0,1,1.061-2.007c1.015-.969,1.73-2.238,1.407-2.538-.092-.092-.231-.046-.277.092-.185.531-.738,1.13-.877.969-.323-.3.115-1.315.623-1.477.715-.208,1.569.807,1.569,1.892,0,.761-.323,1.084-.508.508-.161-.461-.854,0-.992.669-.254,1.246-.461,1.753-.738,1.869-.185.046-.3-.115-.3-.415,0-.277-.092-.415-.231-.346-.323.208-.3,1.107.046,1.453a2.529,2.529,0,0,0,2.561-.185c.669-.531.969-1.246.692-1.661a5.378,5.378,0,0,1-.185-1.615,3.076,3.076,0,0,0-.484-1.961C115.183-359.9,114.007-360.173,113.614-359.665Z" transform="translate(-105.286 369.592)"/>
        <path id="path913" class="cls-6" d="M1148.591-359.689a2.924,2.924,0,0,0-.369.807c-.138.415-.346.531-.923.531a1.718,1.718,0,0,0-1.015.277c-.346.346-.369,1.338-.046,1.338.138,0,.231-.254.231-.577,0-.461.115-.577.554-.577.623,0,1.177.554.946.923a.691.691,0,0,1-.646.185c-.784-.115-1.038,1.246-.461,2.469l.415.923.069-1.061a2.453,2.453,0,0,1,1.061-2.007c1.015-.969,1.73-2.238,1.407-2.538-.092-.092-.231-.023-.277.115a4.274,4.274,0,0,1-.531.807l-.438.531-.023-.623c0-.646.531-1.338.992-1.338.715.023,1.315.969,1.315,2.053,0,.692-.323.992-.507.438-.162-.461-.854,0-.992.669-.254,1.246-.461,1.753-.738,1.869-.185.046-.3-.115-.3-.415,0-.277-.092-.415-.231-.346-.323.208-.3,1.107.046,1.453a2.036,2.036,0,0,0,1.177.277,1.927,1.927,0,0,0,1.569-.669c.692-.692.854-1.269.438-1.523-.161-.092-.184-.531-.115-1.13a3.737,3.737,0,0,0-.877-2.953A1.817,1.817,0,0,0,1148.591-359.689Z" transform="translate(-901.497 369.616)"/>
      </g>
    </g>
    <g id="Group_8" data-name="Group 8" transform="translate(-17 93)">
      <g id="Group_1" data-name="Group 1" class="cls-7" transform="translate(237 328)">
        <path id="Path_1" data-name="Path 1" class="cls-4" d="M0,0H150V47.142H0Z" transform="translate(1075 143)"/>
        <rect id="Rectangle_3-2" data-name="Rectangle 3" class="cls-8" width="150" height="106.763" transform="translate(1075 190.142)"/>
        <text id="_" data-name="#" class="cls-9" transform="translate(1088.943 158.271)"><tspan x="0" y="13">#</tspan></text>
        <rect id="Rectangle_4" data-name="Rectangle 4" class="cls-10" width="124.769" height="33.199" rx="7" transform="translate(1088.943 249.099)"/>
      </g>
      <g id="Group_2" data-name="Group 2" class="cls-7" transform="translate(-147 319)">
        <path id="Path_1-2" data-name="Path 1" class="cls-11" d="M0,0H150V37.542H0Z" transform="translate(1075 143)"/>
        <rect id="Rectangle_3-3" data-name="Rectangle 3" class="cls-12" width="150" height="152.785" transform="translate(1075 180.542)"/>
        <text id="_2" data-name="#" class="cls-9" transform="translate(1086.104 155.161)"><tspan x="0" y="13">#</tspan></text>
        <rect id="Rectangle_4-2" data-name="Rectangle 4" class="cls-10" width="129.907" height="26.438" rx="7" transform="translate(1086.104 295.256)"/>
      </g>
      <g id="Group_4" data-name="Group 4" class="cls-7" transform="translate(45 431)">
        <path id="Path_1-3" data-name="Path 1" class="cls-13" d="M0,0H150V47.142H0Z" transform="translate(1075 143)"/>
        <g class="cls-20" transform="matrix(1, 0, 0, 1, 674.5, -292.5)">
          <rect id="Rectangle_3-4" data-name="Rectangle 3" class="cls-14" width="150" height="75.261" transform="translate(400.5 482.64)"/>
        </g>
        <text id="_3" data-name="#" class="cls-9" transform="translate(1088.943 158.271)"><tspan x="0" y="13">#</tspan></text>
        <rect id="Rectangle_4-3" data-name="Rectangle 4" class="cls-10" width="124.769" height="33.199" rx="7" transform="translate(1088.943 217.597)"/>
      </g>
      <g id="Group_5" data-name="Group 5" class="cls-7" transform="translate(-147 534)">
        <path id="Path_1-4" data-name="Path 1" class="cls-4" d="M0,0H150V47.142H0Z" transform="translate(1075 143)"/>
        <rect id="Rectangle_3-5" data-name="Rectangle 3" class="cls-8" width="150" height="106.763" transform="translate(1075 190.142)"/>
        <text id="_4" data-name="#" class="cls-9" transform="translate(1088.943 158.271)"><tspan x="0" y="13">#</tspan></text>
        <rect id="Rectangle_4-4" data-name="Rectangle 4" class="cls-10" width="124.769" height="33.199" rx="7" transform="translate(1088.943 249.099)"/>
      </g>
      <g id="Group_6" data-name="Group 6" class="cls-7" transform="translate(45 587)">
        <path id="Path_1-5" data-name="Path 1" class="cls-11" d="M0,0H150V37.542H0Z" transform="translate(1075 143)"/>
        <rect id="Rectangle_3-6" data-name="Rectangle 3" class="cls-12" width="150" height="152.785" transform="translate(1075 180.542)"/>
        <text id="_5" data-name="#" class="cls-9" transform="translate(1086.104 155.161)"><tspan x="0" y="13">#</tspan></text>
        <rect id="Rectangle_4-5" data-name="Rectangle 4" class="cls-10" width="129.907" height="26.438" rx="7" transform="translate(1086.104 295.256)"/>
      </g>
      <g id="Group_7" data-name="Group 7" class="cls-7" transform="translate(237 509)">
        <path id="Path_1-6" data-name="Path 1" class="cls-11" d="M0,0H150V37.542H0Z" transform="translate(1075 143)"/>
        <rect id="Rectangle_3-7" data-name="Rectangle 3" class="cls-12" width="150" height="152.785" transform="translate(1075 180.542)"/>
        <text id="_6" data-name="#" class="cls-9" transform="translate(1086.104 155.161)"><tspan x="0" y="13">#</tspan></text>
        <rect id="Rectangle_4-6" data-name="Rectangle 4" class="cls-10" width="129.907" height="26.438" rx="7" transform="translate(1086.104 295.256)"/>
      </g>
      <g id="Group_9" data-name="Group 9" class="cls-7" transform="translate(45 243)">
        <path id="Path_1-7" data-name="Path 1" class="cls-4" d="M0,0H150V47.142H0Z" transform="translate(1075 143)"/>
        <rect id="Rectangle_3-8" data-name="Rectangle 3" class="cls-8" width="150" height="106.763" transform="translate(1075 190.142)"/>
        <text id="_7" data-name="#" class="cls-9" transform="translate(1088.943 158.271)"><tspan x="0" y="13">#</tspan></text>
        <rect id="Rectangle_4-7" data-name="Rectangle 4" class="cls-10" width="124.769" height="33.199" rx="7" transform="translate(1088.943 249.099)"/>
      </g>
    </g>
    <text id="ECS_1100" data-name="ECS 1100" class="cls-15" transform="translate(1038 391)"><tspan x="0" y="0">ECS 1100</tspan></text>
    <text id="Questions" class="cls-16" transform="translate(1106 445)"><tspan x="0" y="0">Questions</tspan></text>
    <text id="Assignments" class="cls-17" transform="translate(1330 298)"><tspan x="0" y="0">Assignments</tspan></text>
    <text id="Grades" class="cls-17" transform="translate(1410 298)"><tspan x="0" y="0">Grades</tspan></text>
    <text id="Analytics" class="cls-17" transform="translate(1461 298)"><tspan x="0" y="0">Analytics</tspan></text>
    <text id="Development" class="cls-17" transform="translate(1521 298)"><tspan x="0" y="0">Development</tspan></text>
  </g>
</svg>
