<svg xmlns="http://www.w3.org/2000/svg" xmlns:xlink="http://www.w3.org/1999/xlink" width="1920" height="1080" viewBox="0 0 1920 1080">
  <defs>
    <clipPath id="clip-path">
      <rect id="Rectangle_8" data-name="Rectangle 8" width="1920" height="1080" fill="#fff"/>
    </clipPath>
  </defs>
  <g id="sevcback" clip-path="url(#clip-path)">
    <g id="mountain" transform="translate(-244.708 3.578)">
      <rect id="rect6676" width="2738.2" height="2960.673" transform="translate(649.927 -266.973)" fill="none"/>
      <rect id="rect6848" width="1773.87" height="2663.423" transform="translate(-2.752 -110.092)" fill="none"/>
      <path id="polygon6025-82-2" d="M957,450,539,900h857Z" transform="translate(428.094 183.77)" fill="rgba(0,0,0,0.16)"/>
      <path id="polygon6027-0-0" d="M957,450,872.9,900H1396Z" transform="translate(531.392 183.77)" fill="rgba(0,0,0,0.16)"/>
      <path id="polygon6029-4-3" d="M-60,900,398,662,816,900Z" transform="translate(61.625 262.128)" fill="rgba(0,0,0,0.09)"/>
      <path id="polygon6031-8-1" d="M337,900l61-238L816,900Z" transform="translate(258.257 262.128)" fill="rgba(0,0,0,0.19)"/>
      <path id="polygon6033-4-8" d="M1203,546l349,354H876Z" transform="translate(573.952 221.808)" fill="rgba(0,0,0,0.17)"/>
      <path id="polygon6035-3-3" d="M1203,546l349,354H1162Z" transform="translate(636.253 221.808)" fill="rgba(0,0,0,0.11)"/>
      <path id="polygon6037-53-4" d="M641,695,886,900H367Z" transform="translate(277.37 272.627)" fill="rgba(0,0,0,0.16)"/>
      <path id="polygon6041-29-1" d="M1710,900,1401,632,1096,900Z" transform="translate(672.267 252.228)" fill="rgba(0,0,0,0.06)"/>
      <path id="polygon6043-2-2" d="M1710,900,1401,632l-36,268Z" transform="translate(716.939 252.228)" fill="rgba(0,0,0,0.16)"/>
      <path id="polygon6025-8-3-9" d="M1395.4-900,956.589-450,538.768-900Z" transform="translate(429.041 2279.446)" fill="rgba(0,0,0,0.16)"/>
      <path id="polygon6027-9-8-7" d="M1395.4-900,956.589-450,872.525-900Z" transform="translate(532.244 2279.446)" fill="rgba(0,0,0,0.16)"/>
      <path id="polygon6029-9-1-7" d="M815.649-900H-59.974l457.8,238Z" transform="translate(62.355 2199.312)" fill="rgba(0,0,0,0.09)"/>
      <path id="polygon6031-7-0-1" d="M815.649-900H336.855l60.974,238Z" transform="translate(259.253 2199.312)" fill="rgba(0,0,0,0.19)"/>
      <path id="polygon6033-3-9-1" d="M875.623-900l326.859,354,348.85-354Z" transform="translate(574.789 2240.546)" fill="rgba(0,0,0,0.17)"/>
      <path id="polygon6035-0-1-8" d="M1161.5-900l40.982,354,348.85-354Z" transform="translate(637.044 2240.546)" fill="rgba(0,0,0,0.11)"/>
      <path id="polygon6037-5-1-7" d="M366.842-900,640.724-695,885.619-900Z" transform="translate(278.361 2188.575)" fill="rgba(0,0,0,0.16)"/>
      <path id="polygon6041-2-0-1" d="M1095.529-900h613.736L1400.4-632Z" transform="translate(673.045 2209.436)" fill="rgba(0,0,0,0.06)"/>
      <path id="polygon6043-6-8-1" d="M1364.413-900h344.852L1400.4-632Z" transform="translate(717.688 2209.436)" fill="rgba(0,0,0,0.16)"/>
      <rect id="rect6934" width="1777.99" height="2445.993" fill="none"/>
      <path id="polygon6029-4-3-4" d="M458,0,876,238H0Z" transform="translate(1126.459 232.495) rotate(180)" fill="rgba(0,0,0,0.09)"/>
      <path id="polygon6031-8-1-0" d="M61,0,479,238H0Z" transform="translate(729.459 232.495) rotate(180)" fill="rgba(0,0,0,0.19)"/>
      <path id="polygon6029-4-3-4-8" d="M816,900H-60L398,662Z" transform="translate(60 1545.995)" fill="rgba(0,0,0,0.09)"/>
      <path id="polygon6031-8-1-0-1" d="M816,900H337l61-238Z" transform="translate(255.837 1545.995)" fill="rgba(0,0,0,0.19)"/>
      <path id="polygon6029-4-3-4-6" d="M0,155.431,458,0,876,155.431Z" transform="translate(2188.152 154.781) rotate(180)" fill="rgba(0,0,0,0.09)"/>
      <path id="polygon6031-8-1-0-4" d="M0,155.431,61,0,479,155.431Z" transform="translate(1689.464 154.781) rotate(180)" fill="rgba(0,0,0,0.19)"/>
      <path id="polygon6029-4-3-4-6-0" d="M398,432.332,816,587.763H-60Z" transform="translate(1194.378 1858.882)" fill="rgba(0,0,0,0.09)"/>
      <path id="polygon6031-8-1-0-4-6" d="M398,432.332,816,587.763H337Z" transform="translate(1300.927 1858.882)" fill="rgba(0,0,0,0.19)"/>
      <path id="polygon6029-4-3-4-8-9" d="M-59.846-694.584,396.981-510.905l416.93-183.679Z" transform="translate(61.846 3140.582)" fill="rgba(0,0,0,0.09)"/>
      <path id="polygon6031-8-1-0-1-3" d="M336.137-694.584l60.844,183.679,416.93-183.679Z" transform="translate(258.042 3140.582)" fill="rgba(0,0,0,0.19)"/>
      <path id="polygon6029-4-3-4-6-0-8" d="M813.911-453.618H-59.846L396.981-333.661Z" transform="translate(1193.931 2899.107)" fill="rgba(0,0,0,0.09)"/>
      <path id="polygon6031-8-1-0-4-6-6" d="M813.911-453.618H336.137l60.844,119.957Z" transform="translate(1300.24 2899.107)" fill="rgba(0,0,0,0.19)"/>
      <rect id="rect973" width="1768.26" height="2689.813" fill="none"/>
    </g>
  </g>
</svg>
