<svg xmlns="http://www.w3.org/2000/svg" xmlns:xlink="http://www.w3.org/1999/xlink" width="1051.001" height="721.002" viewBox="0 0 1051.001 721.002">
  <defs>
    <linearGradient id="linear-gradient" y1="-0.076" x2="0.919" y2="1.051" gradientUnits="objectBoundingBox">
      <stop offset="0" stop-color="#d0f"/>
      <stop offset="1" stop-color="#50e3c1"/>
    </linearGradient>
  </defs>
  <g id="DIYHacks" transform="translate(-426 -186.999)">
    <g id="Group_48" data-name="Group 48">
      <path id="Subtraction_6" data-name="Subtraction 6" d="M-10946,727h-971a39.742,39.742,0,0,1-15.569-3.144,39.864,39.864,0,0,1-12.716-8.573,39.87,39.87,0,0,1-8.571-12.715A39.75,39.75,0,0,1-11957,687V46a39.75,39.75,0,0,1,3.144-15.57,39.872,39.872,0,0,1,8.571-12.715,39.863,39.863,0,0,1,12.716-8.573A39.739,39.739,0,0,1-11917,6h971a39.739,39.739,0,0,1,15.569,3.143,39.872,39.872,0,0,1,12.716,8.573,39.866,39.866,0,0,1,8.572,12.715A39.748,39.748,0,0,1-10906,46V687a39.748,39.748,0,0,1-3.144,15.57,39.864,39.864,0,0,1-8.572,12.715,39.871,39.871,0,0,1-12.716,8.573A39.742,39.742,0,0,1-10946,727Zm-926-429V631a40.046,40.046,0,0,0,40,40h809a40.046,40.046,0,0,0,40-40V298Z" transform="translate(12383 181)" fill="url(#linear-gradient)"/>
      <text id="DIYHACKS-2" data-name="DIYHACKS" transform="translate(760 377)" fill="#fff" font-size="101" font-family="Impact"><tspan x="0" y="0">DIYHACKS</tspan></text>
    </g>
    <text id="Developing_a_community_of_individuals_excelling_at_product_management_UX_UI_design_mobile_and_web_development_all_under_the_umbrella_of_bootstrapped_entrepreneurship._In_development." data-name="Developing a community of individuals excelling at product management, UX/UI design, mobile and web development, all under the umbrella of bootstrapped entrepreneurship. In development." transform="translate(572 514)" fill="#fff" font-size="37" font-family="Raleway-Light, Raleway" font-weight="300" letter-spacing="0.13em"><tspan x="0" y="35">Developing a community of </tspan><tspan x="0" y="85">individuals </tspan><tspan y="85" font-family="Raleway-Bold, Raleway" font-weight="700">excelling at product </tspan><tspan x="0" y="135" font-family="Raleway-Bold, Raleway" font-weight="700">management, UX/UI design, </tspan><tspan x="0" y="185" font-family="Raleway-Bold, Raleway" font-weight="700">mobile and web development</tspan><tspan y="185">, all </tspan><tspan x="0" y="235">under the umbrella of bootstrapped </tspan><tspan x="0" y="285">entrepreneurship. In development.</tspan></text>
  </g>
</svg>
