<svg xmlns="http://www.w3.org/2000/svg" xmlns:xlink="http://www.w3.org/1999/xlink" width="1051" height="721.001" viewBox="0 0 1051 721.001">
  <defs>
    <clipPath id="clip-path">
      <rect id="Rectangle_1" data-name="Rectangle 1" width="415.677" height="38.411" transform="translate(346 324)" fill="#164869"/>
    </clipPath>
  </defs>
  <g id="schoolboard" transform="translate(-426 -187)">
    <g id="Group_45" data-name="Group 45">
      <path id="Exclusion_1" data-name="Exclusion 1" d="M-4976,727h-971a39.752,39.752,0,0,1-15.57-3.144,39.86,39.86,0,0,1-12.714-8.573,39.86,39.86,0,0,1-8.572-12.715A39.748,39.748,0,0,1-5987,687V46a39.748,39.748,0,0,1,3.144-15.57,39.856,39.856,0,0,1,8.572-12.715,39.865,39.865,0,0,1,12.714-8.572A39.752,39.752,0,0,1-5947,6h971a39.752,39.752,0,0,1,15.57,3.143,39.874,39.874,0,0,1,12.714,8.572,39.857,39.857,0,0,1,8.572,12.715A39.747,39.747,0,0,1-4936,46V687a39.747,39.747,0,0,1-3.144,15.57,39.854,39.854,0,0,1-8.572,12.715,39.869,39.869,0,0,1-12.714,8.573A39.75,39.75,0,0,1-4976,727Zm-945-433V635a40.046,40.046,0,0,0,40,40h842a40.046,40.046,0,0,0,40-40V294Z" transform="translate(6413 181)" fill="#fff"/>
      <g id="Mask_Group_1" data-name="Mask Group 1" transform="translate(398 -45)" clip-path="url(#clip-path)">
        <g id="g915" transform="translate(260.655 323.908)">
          <path id="path881" d="M609.229-401.18c-2.316,1.052-3.578,2.684-3.631,4.841-.053,2.263,1.1,3.1,1.368.947s1.473-2.631,4.631-1.842a13.932,13.932,0,0,0,5.051.316l2.368-.316-1.631,2.263a14.293,14.293,0,0,0-2.263,5.84c-.579,3.525-.579,3.525-2.262,3.525a4.931,4.931,0,0,0-3.21,1.316l-1.473,1.315,2.263-.316c1.894-.316,2.473-.158,3.525.842a4.138,4.138,0,0,1,1.315,2.42c0,1.1-.21,1.21-1.526.947-1.526-.316-3.736.474-3.736,1.368,0,.316.684.526,1.526.526,3.052,0,4.42,3,2.894,6.367-.737,1.631-3.525,4.525-6.472,6.63-.105.105-.105.316.105.474.158.158,1.842-.316,3.683-1.052a44.831,44.831,0,0,1,7.156-2,13.221,13.221,0,0,1,7.314.263,23.612,23.612,0,0,1,5.419,2.157l1.842,1.263,3-2.894c1.631-1.579,2.841-3.1,2.683-3.42-.21-.263-.842-.053-1.526.631l-1.158,1.1-3.1-1.684c-3-1.579-3.315-1.631-8.208-1.421l-5.1.263,2.526-2.262a23.177,23.177,0,0,0,4-5.051l1.578-2.789-.105-8.208c-.158-8.208-.158-8.261,1.21-9.576a6.845,6.845,0,0,1,2.894-1.684c1.947-.421,1.473-1.315-.737-1.315a10.363,10.363,0,0,0-7.419,4.157c-1.1,1.894-1.158,3.157-.842,12.944.158,4.42,0,5.63-.894,7.682-1.052,2.368-4.578,6.788-5.419,6.788-.263,0,.263-1.263,1.052-2.789,2.263-4.157,2.841-8.156,2.157-14.628-.684-6.788-.263-8.892,2.368-11.576,2.157-2.21,2.1-3.1-.053-2.157-1.842.842-4.683.789-8.156-.158C610.808-402.075,611.176-402.022,609.229-401.18Z" transform="translate(-332.304 401.825)" fill="#164869"/>
          <path id="path883" d="M847.419-398.349c-.263.368-1.947,8.156-3.788,17.311-3.368,16.838-3.788,18-5.946,18-.421,0-.579.158-.369.368.526.526,7.156.579,7.156.053,0-.211-.421-.421-1-.421-1.947,0-2.21-1.158-1.368-5.209.421-2.1.789-3.841.789-3.894,0-.263,5.788.105,6.209.368a9.858,9.858,0,0,1,1.105,3.578c.368,1.842.737,3.736.894,4.209.211.684,0,.947-.789.947-.631,0-1.105.158-1.105.421,0,.579,8.314.684,8.682.053.21-.263-.158-.474-.737-.474a1.357,1.357,0,0,1-1.368-1.21c-.158-.631-1.789-8.261-3.683-16.943C848.366-398.191,848.05-399.4,847.419-398.349Zm.158,17.943c.631,3.052,1.263,5.946,1.421,6.419.263.842-.105.947-2.841.947h-3.1l1.368-6.84c.737-3.736,1.473-6.63,1.684-6.419A38.42,38.42,0,0,1,847.577-380.406Z" transform="translate(-442.055 400.309)" fill="#164869"/>
          <path id="path885" d="M267.525-397.006c-2.157,1.315-3.683,4.893-3.42,7.893.316,3.42,1.473,5.525,5.209,9.839,4.578,5.262,6.261,8.366,6.261,11.576,0,3.578-1.052,5-3.631,5-3.052,0-5.946-3.631-6.682-8.366-.631-3.946-1.263-2.263-1.263,3.367a25.651,25.651,0,0,0,.316,5.525c.21,0,.684-.421,1.052-.947.631-.842.789-.842,2.789.263,3.578,2.052,7.156,1.421,10-1.631,1-1.052,1.368-2.1,1.526-4.472.263-3.946-1.21-7.419-5.262-12.207-4.683-5.525-5.577-6.945-6.1-9.313-.737-3.21,0-5.578,2-6.419,2.789-1.158,5.262,1.263,6.419,6.209.368,1.526.842,2.736,1.052,2.736.263,0,.421-2.315.421-5.157-.053-4.578-.105-5-.789-4.1-.737,1-.842,1-2.631.158A8,8,0,0,0,267.525-397.006Z" transform="translate(-170.446 399.966)" fill="#164869"/>
          <path id="path887" d="M334.725-395.948c-2.473,2.578-3.21,5.367-3.578,13.523-.421,10.208,1.421,17.522,4.893,19.679a5.364,5.364,0,0,0,5.893.263c.737-.526,1.263-.631,1.473-.263.894,1.421,1.315.105,1.315-4.262,0-3-.21-4.63-.526-4.42a1.669,1.669,0,0,0-.526,1.263,22.1,22.1,0,0,1-.789,3.631c-1,3.21-2.736,4.736-4.42,3.788-2.315-1.21-2.315-.894-2.157-30.36,0-2.263,2.052-4.63,3.525-4.157,1.052.368,2.789,3.631,3.525,6.84.579,2.315,1,1.21.947-2.42,0-5.63,0-5.577-.894-4.42-.737.947-.842.947-1.736.158a4.958,4.958,0,0,0-3-.894C337.04-398,336.3-397.632,334.725-395.948Z" transform="translate(-202.234 400.013)" fill="#164869"/>
          <path id="path889" d="M391.425-397.474c-.21.316.263.526,1,.526h1.368v34.2h-1.368c-.737,0-1.21.21-1.052.421.316.526,8.577.421,9.1-.053.158-.21-.158-.368-.789-.368-1.158,0-1.158-.105-1.158-9.155v-9.156l3.157-.21,3.157-.158v9.313c0,9.366,0,9.366-1.158,9.366-.947.053-1.052.105-.421.474.947.526,8.156.474,8.734-.105.211-.21-.263-.368-1-.368h-1.421v-17.1c0-16.732,0-17.1,1.052-17.1.579,0,1.052-.263,1.052-.526,0-.316-1.841-.526-4.472-.526s-4.472.21-4.472.526c0,.263.474.526,1.052.526,1,0,1.052.368,1.052,7.366v7.367h-6.314v-7.367c0-7,.053-7.366,1.052-7.366.579,0,1.052-.263,1.052-.526,0-.316-1.842-.526-4.42-.526C393.74-398,391.583-397.79,391.425-397.474Z" transform="translate(-230.784 400.013)" fill="#164869"/>
          <path id="path891" d="M472.025-396.369c-2.526,2.263-3.473,5.577-3.788,13.681-.579,13.523,2.42,20.994,8.366,20.994,2.421,0,4.946-2.052,6.262-5,1.947-4.472,2.578-14.733,1.315-21.889-1.263-6.893-3.315-9.418-7.735-9.418A5.264,5.264,0,0,0,472.025-396.369Zm6.1-.105,1.263,1,.158,14.786c.105,12.576.053,15-.684,16.364-.631,1.21-1.158,1.578-2.368,1.578-3.262,0-3.367-1.315-3.157-30.413a4.241,4.241,0,0,1,1.315-3C476.182-397.737,476.55-397.79,478.129-396.474Z" transform="translate(-267.186 400.013)" fill="#164869"/>
          <path id="path893" d="M542.019-396.369c-2.473,2.21-3.42,5.577-3.788,13.681-.316,7.524.316,12.47,2.21,16.627,2.789,6.1,9.576,5.788,12.418-.631,1.947-4.472,2.578-14.733,1.315-21.889-1.263-6.893-3.315-9.418-7.735-9.418A5.264,5.264,0,0,0,542.019-396.369Zm6.1-.105,1.263,1,.158,14.943c.105,16.574,0,17.416-2.894,17.679-3.473.368-3.525-.158-3.315-30.571,0-1.421,2-4.052,3.052-4.052A4.738,4.738,0,0,1,548.122-396.474Z" transform="translate(-300.347 400.013)" fill="#164869"/>
          <path id="path895" d="M701.425-397.474c-.21.316.263.526,1,.526h1.368v34.2h-1.368c-.737,0-1.21.21-1.052.474.421.631,12.523.316,13.839-.368,1.894-1.052,3.315-4.736,3.315-8.577-.053-4.052-1.158-6.525-3.578-8.156-1.579-1.105-1.631-1.21-.631-1.526a6.584,6.584,0,0,0,2.368-2.631,12.464,12.464,0,0,0,.421-10.681c-1.473-3-3.578-3.788-10-3.788C704.109-398,701.583-397.79,701.425-397.474Zm11.313,1.526a35.608,35.608,0,0,1,.526,7.366c0,7-.368,7.945-3.21,7.945h-1.526v-16.311h1.842C711.633-396.948,712.317-396.632,712.738-395.948Zm-.053,17.1c.316.368.579,3.788.684,7.629.105,6.367.053,7.051-.895,7.735a4.576,4.576,0,0,1-2.473.737h-1.473v-8.366c0-6.1.158-8.419.632-8.577A4.111,4.111,0,0,1,712.685-378.847Z" transform="translate(-377.671 400.013)" fill="#164869"/>
          <path id="path897" d="M777.019-396.369c-2.526,2.263-3.473,5.577-3.789,13.681-.316,7.577.316,12.523,2.21,16.627,2.789,6.1,9.576,5.788,12.418-.631,1.947-4.472,2.578-14.733,1.315-21.889-1.263-6.893-3.315-9.418-7.735-9.418A5.263,5.263,0,0,0,777.019-396.369Zm6.1-.105,1.263,1,.158,14.943c.105,16.574,0,17.416-2.894,17.679-3.157.316-3.315-.368-3.315-17.153V-394.9l1.315-1.263C781.175-397.737,781.544-397.79,783.122-396.474Z" transform="translate(-411.696 400.013)" fill="#164869"/>
          <path id="path899" d="M910.363-397.448c-.21.316.263.526,1,.526h1.368v34.2H911.31c-.737,0-1.263.158-1.052.316.473.526,7.366.684,8.524.211,1-.421,1-.474-.105-.474-1.21-.053-1.21-.105-1.21-8.945,0-8.314.052-8.892,1-9.156a4.457,4.457,0,0,1,2.263.368c1.158.579,1.21.947,1.473,7.682.316,7.893.947,9.945,3.315,10.734,1.947.684,4.262-.526,4.473-2.315.105-1.263.105-1.263-.631-.316a1.644,1.644,0,0,1-1.631.684c-.631-.263-.789-1.473-.789-7.156,0-6.577-.053-6.893-1.368-8.419a4.394,4.394,0,0,0-2.21-1.631c-.526,0-.21-.421.842-1.052,4.788-2.947,4.1-13.365-.947-15.1C920.992-398.08,910.837-398.185,910.363-397.448Zm11,1.526c.789.842.947,2,.895,6.682-.053,6.314-.631,7.577-3.315,7.577h-1.473v-15.259h1.473A3.759,3.759,0,0,1,921.36-395.922Z" transform="translate(-476.638 399.987)" fill="#164869"/>
          <path id="path901" d="M982.079-397.487c-.263.368.105.579.947.579h1.368v34.2l-1.421.053-1.473.053,1.315.368a28.841,28.841,0,0,0,6,.263c6.1-.263,7.524-1.052,9.155-5.209,2.315-5.735,2.1-20.784-.421-26.414-1.473-3.42-2.947-4.052-9.524-4.262C984.289-398.013,982.289-397.855,982.079-397.487Zm11.365,1.473c.895.789.947,2,.947,15.785v14.943l-1.315,1.263a4.333,4.333,0,0,1-2.631,1.315h-1.315v-34.2h1.684A4.279,4.279,0,0,1,993.444-396.013Z" transform="translate(-510.417 399.973)" fill="#164869"/>
          <path id="path903" d="M144.471-386.566c.158,1.473.158,1.473-2.894,1.315-3.788-.158-5.314.526-4.893,2.262a1.356,1.356,0,0,1-.684,1.842c-1.421.737-1.631.684-1.631-.474a1.935,1.935,0,0,0-.421-1.315c-.631-.368-.105,5.314.684,7.682a3.982,3.982,0,0,1,.21,2.631c-1.263,1.947.105,5.1,1.894,4.42,1.052-.368,1.052-2.42,0-2.42a.759.759,0,0,0-.789.631c0,.474-.158.474-.474-.053-.842-1.263.263-2.526,2.526-2.894,1.684-.263,2.315-.684,2.947-1.894.947-1.789.368-2.1-1.052-.526-2.21,2.42-5.683-.21-4.472-3.368.631-1.789,1.526-1.789,1.421,0-.105,1.684,1.1,2.578,2.947,2.1,1.736-.421,4.893-3.157,5.946-5.1.895-1.789.947-4.788.105-5.63C144.787-388.407,144.313-388.092,144.471-386.566Z" transform="translate(-108.691 395.261)" fill="#164869"/>
          <path id="path905" d="M1179.385-386.566c.158,1.473.158,1.473-2.894,1.315-3.789-.158-5.315.526-4.894,2.262a1.337,1.337,0,0,1-.737,1.842c-.895.474-1.158.368-1.579-.842-.316-.789-.631-1.315-.737-1.21-.316.421.684,7.787,1.21,8.734a1.8,1.8,0,0,1,0,1.789c-.736,1.158-.579,3.42.316,4.157a1.383,1.383,0,0,0,2.368-1.052c0-1.158-.789-1.421-1.368-.474-.21.421-.473.368-.789-.105-.737-1.158.473-2.42,2.631-2.789,1.684-.263,2.315-.684,2.947-1.894.947-1.789.368-2.1-1.052-.526a2.821,2.821,0,0,1-4.683-3c.684-1.947,1.737-2.157,1.631-.421s1.1,2.631,2.946,2.157c1.736-.421,4.893-3.157,5.946-5.1.895-1.789.947-4.788.105-5.63C1179.7-388.407,1179.227-388.092,1179.385-386.566Z" transform="translate(-599.015 395.261)" fill="#164869"/>
          <path id="path907" d="M86.621-385.447a8.749,8.749,0,0,0,.947,7.314c1.158,1.579,3.262,2.157,3.262.895,0-.526.474-.842,1.315-.842,1.1,0,1.315.263,1.315,1.526,0,3.631,2.368,6.893,5,6.893,2.315,0,3.578-1.1,3.683-3.21a9.989,9.989,0,0,1,.737-3.052,1.873,1.873,0,0,0-.21-2.473,5.013,5.013,0,0,0-2.157-1.789c-1.21-.474-1.789-2.1-.737-2.1a.527.527,0,0,0,.526-.526c0-.947-1.526-.526-2.315.631-1.1,1.526-1.1,6.314-.053,8.314.947,1.789,1.21,1.894,2.1.684.947-1.315,1.421,0,.474,1.368a2.21,2.21,0,0,1-2.21,1c-1.158-.105-1.421-.421-1.473-1.736-.105-2.631-.21-2.894-.789-2.894-.316,0-.474.474-.316,1.052.316,1.263-.421,1.421-.894.21-.947-2.473.316-7.156,2.473-8.945,2.263-1.894,7.1-1.473,5.157.474-.684.684-.789,2.473-.053,2.473.263,0,.684-.421,1-.895.421-.789.579-.789,1.368-.158a9.688,9.688,0,0,1,2.368,4c0,.158-.368.21-.789,0-1.052-.368-2.947,1.526-2.578,2.578.474,1.158,1.1,1,1.473-.421.316-1.158.368-1.158,1.631.421,1.263,1.526,1.315,1.526,2.052.526.789-1,.895-.947,1.052.263.105.894,1.1.842,1.263-.105.105-.474-.421-1.263-1.1-1.736-1.158-.737-1.263-1-.842-3.157.579-3.052,1.1-4.052,3.21-5.788a3.648,3.648,0,0,1,3.736-1.105c1.842.316,2.052.263,1.421-.474a3.725,3.725,0,0,0-2.631-.789c-2.473,0-4.841,1.789-6.367,4.841l-1.052,2.052-1.526-2.1c-2.42-3.262-3.683-3.946-7.1-3.473-2.42.263-2.894.21-2.894-.474,0-.474-.21-.842-.474-.842-.947,0-1.21,1.158-.579,2.42.631,1.1.526,1.473-.737,3.42-.789,1.158-1.579,2-1.789,1.842-.158-.211,0-.631.316-.947,1.579-1.579.105-4.472-2.052-3.946-1.789.474-2.631-.105-2.263-1.526C88.989-387.656,87.41-387.393,86.621-385.447Z" transform="translate(-86.2 394.826)" fill="#164869"/>
          <path id="path909" d="M1121.621-385.447a8.75,8.75,0,0,0,.947,7.314c1.157,1.579,3.262,2.157,3.262.895,0-.526.474-.842,1.263-.842,1.105,0,1.263.316,1.579,2.631.474,3.473,2.368,5.788,4.841,5.788,2.315,0,4-1.631,3.788-3.631a3.97,3.97,0,0,1,.631-2.42c.632-.789.632-1.052-.052-2.263a5.66,5.66,0,0,0-2.21-2.1c-1.368-.684-2-2.21-.895-2.21a.527.527,0,0,0,.526-.526c0-.947-1.526-.526-2.315.631-1.1,1.526-1.1,6.314-.052,8.314.947,1.842,1.21,1.894,2.157.631.632-.842.684-.842.737.21a2.242,2.242,0,0,1-2.736,2.21c-.947-.105-1.21-.526-1.263-1.736-.105-2.631-.21-2.894-.789-2.894-.316,0-.474.474-.316,1.052.316,1.263-.421,1.421-.895.21-.947-2.473.315-7.156,2.473-8.945,2.262-1.894,7.1-1.473,5.156.474-.684.684-.789,2.473-.053,2.473.263,0,.684-.421,1-.895.421-.789.578-.789,1.368-.158a9.686,9.686,0,0,1,2.368,4c0,.158-.368.21-.789,0-1.052-.368-2.947,1.526-2.578,2.578.474,1.158,1.263,1,1.263-.263,0-1.473.79-1.315,2.052.368,1,1.473,1.052,1.473,1.842.421.736-1.052.789-1.052,1.263.263.474,1.21.579,1.21.947.316.263-.737.052-1.263-.895-2.052-2.052-1.631-1.052-6.156,2-8.84,1.684-1.421,2.157-1.579,4-1.315,1.842.316,2.052.263,1.421-.474a3.725,3.725,0,0,0-2.631-.789c-2.473,0-4.841,1.789-6.366,4.841l-1.053,2.052-1.526-2.1c-2.421-3.262-3.683-3.946-7.1-3.473-2.42.263-2.894.21-2.894-.474,0-.474-.211-.842-.474-.842-.947,0-1.211,1.158-.579,2.42.631,1.1.526,1.473-.737,3.42-.789,1.158-1.579,2-1.789,1.842-.158-.211,0-.631.316-.947,1.578-1.579.105-4.472-2.052-3.946-1.789.474-2.631-.105-2.263-1.526C1123.989-387.656,1122.41-387.393,1121.621-385.447Z" transform="translate(-576.61 394.826)" fill="#164869"/>
          <path id="path911" d="M116.95-359.333a5.466,5.466,0,0,0-.895,1.842c-.316.947-.789,1.21-2.1,1.21a3.919,3.919,0,0,0-2.315.631c-.789.789-.842,2.841-.105,3.315.316.21.526-.368.526-1.263,0-1.368.21-1.631,1.263-1.631,1.421,0,2.683,1.263,2.157,2.1A1.575,1.575,0,0,1,114-352.7c-1.789-.263-2.368,2.841-1.052,5.63l.947,2.1.158-2.42c.158-2.052.474-2.736,2.42-4.578,2.315-2.21,3.946-5.1,3.21-5.788-.21-.211-.526-.105-.631.211-.421,1.21-1.684,2.578-2,2.21-.737-.684.263-3,1.421-3.367,1.631-.474,3.578,1.842,3.578,4.315,0,1.736-.737,2.473-1.158,1.158-.368-1.052-1.947,0-2.263,1.526-.579,2.841-1.052,4-1.684,4.262-.421.105-.684-.263-.684-.947,0-.631-.21-.947-.526-.789-.737.474-.684,2.526.105,3.315,1,1,4.315.737,5.841-.421,1.526-1.21,2.21-2.841,1.579-3.788a12.266,12.266,0,0,1-.421-3.683,7.015,7.015,0,0,0-1.1-4.472C120.528-359.859,117.845-360.491,116.95-359.333Z" transform="translate(-97.955 381.972)" fill="#164869"/>
          <path id="path913" d="M1151.9-359.348a6.666,6.666,0,0,0-.842,1.842c-.316.947-.789,1.21-2.1,1.21a3.919,3.919,0,0,0-2.315.631c-.789.789-.842,3.052-.105,3.052.316,0,.526-.579.526-1.315,0-1.052.263-1.315,1.263-1.315,1.421,0,2.684,1.263,2.157,2.1a1.575,1.575,0,0,1-1.474.421c-1.789-.263-2.368,2.841-1.052,5.63l.947,2.1.158-2.42c.158-2.052.474-2.736,2.421-4.578,2.315-2.21,3.946-5.1,3.209-5.788-.21-.21-.526-.053-.631.263a9.738,9.738,0,0,1-1.21,1.842l-1,1.21-.052-1.421c0-1.473,1.21-3.052,2.262-3.052,1.631.053,3,2.21,3,4.683,0,1.578-.737,2.263-1.157,1-.369-1.052-1.947,0-2.263,1.526-.579,2.841-1.052,4-1.684,4.262-.421.105-.684-.263-.684-.947,0-.631-.21-.947-.526-.789-.737.474-.684,2.526.105,3.315a4.641,4.641,0,0,0,2.683.631,4.4,4.4,0,0,0,3.578-1.526c1.579-1.578,1.947-2.894,1-3.473-.368-.21-.421-1.21-.263-2.578.368-2.315-.737-5.946-2-6.735C1154.844-360.19,1152.529-360.032,1151.9-359.348Z" transform="translate(-588.366 381.986)" fill="#164869"/>
        </g>
      </g>
      <g id="Group_9" data-name="Group 9" transform="translate(735 431)">
        <path id="Path_1" data-name="Path 1" d="M0,0H150V47.142H0Z" transform="translate(0 -3.821)" fill="#164869"/>
        <rect id="Rectangle_3" data-name="Rectangle 3" width="150" height="49.725" transform="translate(0 -5.113)" fill="#164869" opacity="0.68"/>
        <text id="_" data-name="#" transform="translate(13.943 4.357)" fill="#fff" font-size="14" font-family="Raleway-Regular, Raleway"><tspan x="0" y="13">#</tspan></text>
      </g>
      <g id="Group_39" data-name="Group 39" transform="translate(1035 435)">
        <path id="Path_1-2" data-name="Path 1" d="M0,0H150V43.251H0Z" transform="translate(0 -3)" fill="#164869"/>
        <rect id="Rectangle_3-2" data-name="Rectangle 3" width="150" height="0.725" transform="translate(0 42.526)" fill="#164869" opacity="0.68"/>
        <text id="_2" data-name="#" transform="translate(13.943 13.326)" fill="#fff" font-size="14" font-family="Raleway-Regular, Raleway"><tspan x="0" y="13">#</tspan></text>
      </g>
      <g id="Group_2" data-name="Group 2" transform="translate(810 395)" opacity="0.69">
        <path id="Path_1-3" data-name="Path 1" d="M0,0H150V37.542H0Z" fill="#50a7e1"/>
        <rect id="Rectangle_3-3" data-name="Rectangle 3" width="150" height="41.958" transform="translate(0 37.443)" fill="#50a7e1" opacity="0.68"/>
        <text id="_3" data-name="#" transform="translate(11.104 12.142)" fill="#fff" font-size="14" font-family="Raleway-Regular, Raleway"><tspan x="0" y="13">#</tspan></text>
      </g>
      <g id="Group_37" data-name="Group 37" transform="translate(960 396)" opacity="0.69">
        <path id="Path_1-4" data-name="Path 1" d="M0,0H150V37.542H0Z" fill="#50a7e1"/>
        <rect id="Rectangle_3-4" data-name="Rectangle 3" width="150" height="46.892" transform="translate(0 32.359)" fill="#50a7e1" opacity="0.68"/>
        <text id="_4" data-name="#" transform="translate(11.104 12.894)" fill="#fff" font-size="14" font-family="Raleway-Regular, Raleway"><tspan x="0" y="13">#</tspan></text>
      </g>
      <g id="Group_38" data-name="Group 38" transform="translate(-190 216)">
        <path id="Path_1-5" data-name="Path 1" d="M0,0H150V47.142H0Z" transform="translate(1075 143)" fill="#1f8745"/>
        <rect id="Rectangle_3-5" data-name="Rectangle 3" width="150" height="75.261" transform="translate(1075 183.99)" fill="#1f8745" opacity="0.4"/>
        <text id="_5" data-name="#" transform="translate(1088.943 158.271)" fill="#fff" font-size="14" font-family="Raleway-Regular, Raleway"><tspan x="0" y="13">#</tspan></text>
        <rect id="Rectangle_4" data-name="Rectangle 4" width="124.769" height="33.199" rx="7" transform="translate(1088.943 211.445)" fill="#fff"/>
      </g>
    </g>
    <text id="Using_data_analytics_as_a_foundation_teachers_can_dynamically_adjust_their_curriculum_to_better_fit_the_students_needs_creating_a_better_educational_experience_for_all._Product_in_development." data-name="Using data analytics as a foundation, teachers can dynamically adjust their curriculum to better fit the students&apos; needs, creating a better educational experience for all. Product in development." transform="translate(545 515)" fill="#fff" font-size="37" font-family="Raleway-Light, Raleway" font-weight="300" letter-spacing="0.13em"><tspan x="0" y="35">Using </tspan><tspan y="35" font-family="Raleway-Black, Raleway" font-weight="800">data analytics</tspan><tspan y="35" xml:space="preserve"> as a foundation, </tspan><tspan x="0" y="85">teachers can dynamically adjust their </tspan><tspan x="0" y="135">curriculum to </tspan><tspan y="135" font-family="Raleway-Black, Raleway" font-weight="800">better fit the students&apos; </tspan><tspan x="0" y="185" font-family="Raleway-Black, Raleway" font-weight="800">needs</tspan><tspan y="185">, creating a better educational </tspan><tspan x="0" y="235">experience for all. Product in </tspan><tspan x="0" y="285">development.</tspan></text>
  </g>
</svg>
